<?xml version="1.0" encoding="utf-8"?>
<!-- Generator: Adobe Illustrator 16.0.3, SVG Export Plug-In . SVG Version: 6.00 Build 0)  -->
<!DOCTYPE svg PUBLIC "-//W3C//DTD SVG 1.1//EN" "http://www.w3.org/Graphics/SVG/1.1/DTD/svg11.dtd">
<svg version="1.1" xmlns="http://www.w3.org/2000/svg" xmlns:xlink="http://www.w3.org/1999/xlink" x="0px" y="0px" width="24px"
	 height="24px" viewBox="0 0 24 24" enable-background="new 0 0 24 24" xml:space="preserve">
<g id="Outline_Icons">
	<g>
		<path d="M12.708,12L23.854,0.854c0.195-0.195,0.195-0.512,0-0.707s-0.512-0.195-0.707,0l-11.5,11.5
			c-0.195,0.195-0.195,0.512,0,0.707l11.5,11.5C23.245,23.951,23.373,24,23.5,24s0.256-0.049,0.354-0.146
			c0.195-0.195,0.195-0.512,0-0.707L12.708,12z"/>
		<path d="M1.208,12L12.354,0.854c0.195-0.195,0.195-0.512,0-0.707s-0.512-0.195-0.707,0l-11.5,11.5
			c-0.195,0.195-0.195,0.512,0,0.707l11.5,11.5C11.745,23.951,11.873,24,12,24s0.256-0.049,0.354-0.146
			c0.195-0.195,0.195-0.512,0-0.707L1.208,12z"/>
	</g>
</g>
<g id="Layer_2">
	<rect fill="none" width="24" height="24"/>
</g>
</svg>
