<?xml version="1.0" encoding="utf-8"?>
<!-- Generator: Adobe Illustrator 16.0.3, SVG Export Plug-In . SVG Version: 6.00 Build 0)  -->
<!DOCTYPE svg PUBLIC "-//W3C//DTD SVG 1.1//EN" "http://www.w3.org/Graphics/SVG/1.1/DTD/svg11.dtd">
<svg version="1.1" xmlns="http://www.w3.org/2000/svg" xmlns:xlink="http://www.w3.org/1999/xlink" x="0px" y="0px" width="24px"
	 height="24px" viewBox="0 0 24 24" enable-background="new 0 0 24 24" xml:space="preserve">
<g id="Outline_Icons">
	<g>
		<path d="M12.354,11.646l-11.5-11.5c-0.195-0.195-0.512-0.195-0.707,0s-0.195,0.512,0,0.707L11.293,12L0.147,23.146
			c-0.195,0.195-0.195,0.512,0,0.707C0.245,23.951,0.373,24,0.5,24s0.256-0.049,0.354-0.146l11.5-11.5
			C12.549,12.158,12.549,11.842,12.354,11.646z"/>
		<path d="M23.854,11.646l-11.5-11.5c-0.195-0.195-0.512-0.195-0.707,0s-0.195,0.512,0,0.707L22.793,12L11.647,23.146
			c-0.195,0.195-0.195,0.512,0,0.707C11.745,23.951,11.873,24,12,24s0.256-0.049,0.354-0.146l11.5-11.5
			C24.049,12.158,24.049,11.842,23.854,11.646z"/>
	</g>
</g>
<g id="Layer_2">
	<rect fill="none" width="24" height="24"/>
</g>
</svg>
