<?xml version="1.0" encoding="UTF-8"?>
<svg width="25px" height="25px" viewBox="0 0 25 25" version="1.1" xmlns="http://www.w3.org/2000/svg" xmlns:xlink="http://www.w3.org/1999/xlink">
    <!-- Generator: Sketch 43.2 (39069) - http://www.bohemiancoding.com/sketch -->
    <title>Slice 1</title>
    <desc>Created with Sketch.</desc>
    <defs></defs>
    <g id="Page-1" stroke="none" stroke-width="1" fill="none" fill-rule="evenodd">
        <g id="price-tag" fill-rule="nonzero" fill="#FFFFFF">
            <g id="Filled_Icon">
                <g id="Group">
                    <path d="M23.854,14.662 C24.049,14.858 24.049,15.174 23.854,15.369 L15.369,23.854 C15.271,23.951 15.143,24 15.015,24 C14.887,24 14.759,23.951 14.662,23.853 L2.163,11.353 C2.069,11.26 2.016,11.132 2.016,11 L2.01,4.13 L5.043,7.163 C4.817,8.712 6.036,10.006 7.508,10.006 C8.887,10.006 10.008,8.884 10.008,7.506 C10.008,6.058 8.752,4.823 7.162,5.04 L4.127,2.006 L11,2.006 C11.133,2.006 11.26,2.059 11.354,2.153 L23.854,14.662 Z M16.6060456,14.8141113 C16.7993224,15.0073881 17.0008459,15.1688425 17.2106219,15.2984794 C17.420398,15.4281163 17.6337064,15.5094328 17.8505536,15.5424313 C18.0674007,15.5754297 18.2854231,15.5530383 18.5046273,15.4752561 C18.7238315,15.397474 18.9418539,15.2501615 19.1587011,15.0333144 C19.3661201,14.8258954 19.5110756,14.6125869 19.5935718,14.3933827 C19.676068,14.1741785 19.704352,13.9549776 19.6784246,13.7357734 C19.6524972,13.5165692 19.5806087,13.3009038 19.462757,13.0887707 C19.3449053,12.8766376 19.1893434,12.6739357 18.9960665,12.4806589 C18.8027897,12.2873821 18.6024448,12.1247491 18.3950258,11.9927552 C18.1876068,11.8607613 17.9754768,11.7782663 17.7586297,11.7452679 C17.5417825,11.7122694 17.3237601,11.7323039 17.1045559,11.8053719 C16.8853517,11.87844 16.6649723,12.0257524 16.4434111,12.2473137 C16.235992,12.4547327 16.0922151,12.6692196 16.0120759,12.8907808 C15.9319368,13.1123421 15.9036528,13.3339 15.9272231,13.5554612 C15.9507935,13.7770224 16.0215034,13.9938664 16.1393551,14.2059994 C16.2572069,14.4181325 16.4127688,14.6208345 16.6060456,14.8141113 Z M17.3343656,14.0999334 C17.2542264,14.0197943 17.168196,13.9266928 17.0762716,13.8206263 C16.9843473,13.7145597 16.9124588,13.6026023 16.8606041,13.4847505 C16.8087493,13.3668988 16.7863578,13.2478704 16.7934289,13.1276616 C16.8005,13.0074529 16.8606035,12.8907814 16.9737411,12.7776438 C17.0774507,12.6739342 17.1905866,12.6244373 17.3131524,12.6291513 C17.4357182,12.6338654 17.5547466,12.6656849 17.6702413,12.7246107 C17.785736,12.7835366 17.8953365,12.8577821 17.999046,12.9473494 C18.1027555,13.0369167 18.1899645,13.1170547 18.2606755,13.1877657 C18.3361006,13.2631908 18.4185956,13.3527567 18.5081629,13.4564663 C18.5977302,13.5601758 18.6707971,13.6709547 18.727366,13.7888064 C18.7839348,13.9066582 18.8110403,14.0280436 18.8086832,14.1529664 C18.8063262,14.2778893 18.7509367,14.3945607 18.6425132,14.5029843 C18.5293755,14.6161219 18.4115255,14.6726899 18.2889598,14.6726899 C18.166394,14.6726899 18.0473655,14.6432274 17.9318708,14.5843016 C17.8163762,14.5253757 17.7067757,14.4487732 17.6030662,14.3544919 C17.4993567,14.2602105 17.4097907,14.1753585 17.3343656,14.0999334 Z M13.3392123,10.4583335 L15.6655936,18.639559 L16.2807765,18.0243761 L13.9402531,9.85729274 L13.3392123,10.4583335 Z M10.6027091,16.1081167 C10.7959859,16.3013935 10.9963308,16.4616694 11.2037498,16.5889493 C11.4111688,16.7162292 11.6209418,16.7940101 11.8330748,16.8222945 C12.0452079,16.850579 12.2596949,16.824652 12.476542,16.7445128 C12.6933892,16.6643736 12.9102331,16.5158827 13.1270803,16.2990355 C13.3344993,16.0916165 13.4806332,15.8794866 13.5654865,15.6626394 C13.6503397,15.4457923 13.6821592,15.2301268 13.6609459,15.0156367 C13.6397326,14.8011466 13.5713796,14.5890167 13.4558849,14.3792406 C13.3403902,14.1694645 13.1860068,13.9679411 12.99273,13.7746643 C12.7994532,13.5813875 12.5967512,13.4163976 12.3846181,13.2796896 C12.172485,13.1429816 11.9556411,13.0557726 11.7340799,13.0180601 C11.5125187,12.9803475 11.2909608,12.9968465 11.0693995,13.0675575 C10.8478383,13.1382686 10.6262804,13.2844025 10.4047192,13.5059637 C10.1973001,13.7133828 10.0547017,13.9290482 9.97691955,14.1529664 C9.89913741,14.3768847 9.87438892,14.6019781 9.90267334,14.8282534 C9.93095775,15.0545287 10.0063817,15.2760866 10.1289475,15.4929338 C10.2515133,15.709781 10.4094322,15.9148399 10.6027091,16.1081167 Z M11.3381001,15.4010099 C11.2579609,15.3208707 11.1695735,15.2254123 11.0729351,15.1146317 C10.9762966,15.003851 10.8996942,14.8871796 10.8431254,14.7646138 C10.7865565,14.642048 10.759451,14.5183056 10.7618081,14.3933827 C10.7641651,14.2684599 10.8219116,14.1494315 10.9350492,14.0362938 C11.0387588,13.9325843 11.1530732,13.8842658 11.277996,13.8913369 C11.4029188,13.898408 11.5266613,13.9349415 11.6492271,14.0009385 C11.7717929,14.0669354 11.8872858,14.1470734 11.9957094,14.2413548 C12.104133,14.3356362 12.193699,14.4181311 12.26441,14.4888422 C12.3398351,14.5642673 12.4199731,14.6514762 12.5048263,14.7504717 C12.5896795,14.8494671 12.6580325,14.9555321 12.7098873,15.0686697 C12.761742,15.1818074 12.7841335,15.2984788 12.7770624,15.4186876 C12.7699913,15.5388963 12.7122448,15.6532108 12.6038212,15.7616344 C12.4906836,15.874772 12.3751906,15.933697 12.2573389,15.9384111 C12.1394872,15.9431251 12.0251727,15.9183766 11.9143921,15.8641649 C11.8036115,15.8099531 11.6987251,15.7380646 11.5997296,15.6484973 C11.5007342,15.55893 11.4135252,15.476435 11.3381001,15.4010099 Z" id="Combined-Shape"></path>
                    <path d="M6.647,7.353 L0.147,0.853 C-0.048,0.658 -0.048,0.341 0.147,0.146 C0.342,-0.049 0.659,-0.049 0.854,0.146 L7.354,6.646 C7.549,6.841 7.549,7.158 7.354,7.353 C7.158,7.549 6.842,7.549 6.647,7.353 Z" id="Shape"></path>
                </g>
            </g>
        </g>
    </g>
</svg>