<?xml version="1.0" encoding="UTF-8" standalone="no"?>
<svg width="256px" height="256px" viewBox="0 0 256 256" version="1.1" xmlns="http://www.w3.org/2000/svg" xmlns:xlink="http://www.w3.org/1999/xlink">
    <!-- Generator: Sketch 41.2 (35397) - http://www.bohemiancoding.com/sketch -->
    <title>Slice 1</title>
    <desc>Created with Sketch.</desc>
    <defs></defs>
    <g id="Page-1" stroke="none" stroke-width="1" fill="none" fill-rule="evenodd">
        <g id="Group">
            <path d="M256.032256,127.977197 C256.032256,198.646822 198.739987,255.954147 128.055307,255.954147 C57.3856826,255.954147 0.0896496124,198.646822 0.0896496124,127.977197 C0.0896496124,57.292517 57.3856826,0.000248062016 128.055307,0.000248062016 C198.739987,0.000248062016 256.032256,57.292517 256.032256,127.977197" id="Fill-11" fill="#DA284B"></path>
            <path d="M210.146901,146.861165 C198.288881,146.861165 188.634399,156.504443 188.634399,168.373666 C188.634399,180.24289 198.288881,189.889903 210.146901,189.889903 C222.01239,189.889903 231.674341,180.24289 231.674341,168.373666 C231.674341,156.504443 222.01239,146.861165 210.146901,146.861165 M210.146901,154.872331 C217.60158,154.872331 223.655706,160.911518 223.655706,168.373666 C223.655706,175.835815 217.60158,181.882472 210.146901,181.882472 C202.684752,181.882472 196.64183,175.835815 196.64183,168.373666 C196.64183,160.911518 202.684752,154.872331 210.146901,154.872331" id="Fill-13" fill="#FFFFFF"></path>
            <path d="M156.174425,69.9603218 C151.490974,78.0611231 145.858882,88.9294181 139.804756,100.817316 C155.378911,97.4634573 168.816754,91.7977516 178.067877,85.3850841 C188.357277,78.3524382 192.626164,70.8716153 192.413279,66.1844296 C192.39834,64.1564282 191.890406,62.1471008 190.299377,59.6597178 C187.666337,55.760577 184.364765,54.1807526 179.531922,54.0649736 C179.464696,54.0612387 179.404939,54.0612387 179.341447,54.0612387 C172.189287,54.0612387 162.348065,59.1368445 156.174425,69.9603218 L156.174425,69.9603218 Z M69.0039768,164.850621 C65.866737,164.850621 62.6174529,165.194223 59.1478151,165.986003 C50.6959417,167.920634 47.088116,174.165235 47.1366685,178.314608 C47.1366685,179.315537 47.323409,180.189483 47.6520722,180.962588 C48.6903491,183.524667 51.3159201,185.149309 55.9545532,185.287497 C57.2804105,185.287497 58.6697595,185.100757 59.9806776,184.757154 C67.9918434,182.516269 74.0235604,178.67315 80.7312779,169.795508 C81.3923391,168.914093 82.0683396,167.957982 82.7704837,166.927175 C78.3484696,165.646135 73.8480244,164.850621 69.1795128,164.850621 L69.0039768,164.850621 Z M30.4084578,188.223057 C29.0676612,185.03353 28.4327437,181.649793 28.4327437,178.314608 C28.485031,164.514488 38.8267179,151.442656 54.9760331,147.752664 C59.8126111,146.650895 64.4997968,146.146696 69.0039768,146.146696 C77.8031874,146.176575 85.7060438,148.006631 92.8133858,150.523893 C95.3381169,146.06453 97.9636878,141.231687 100.634076,136.189695 C103.274587,131.222398 105.967384,126.045953 108.660182,120.787341 C101.310077,119.704246 94.4342931,118.045991 88.2531837,114.789237 C81.7322067,111.442848 75.969396,105.739795 73.2355157,98.1506622 C71.7565312,94.1730903 71.1514921,90.1581703 71.1514921,86.386013 C71.6295477,66.3524961 85.7732704,52.8660998 86.1616905,52.0481766 L86.1616905,52.059381 C89.717229,48.3058977 95.6443713,48.1602401 99.3866502,51.7307178 C103.128929,55.2862562 103.274587,61.2021941 99.7153134,64.944473 C99.7302526,64.9556774 99.2484622,65.4038545 98.292351,66.6139327 C97.3287703,67.8128065 95.9991782,69.6055149 94.7069341,71.7418258 C92.0738936,76.006978 89.79566,81.6241312 89.8591517,86.386013 C89.8591517,88.2048651 90.1243232,89.9079381 90.7629756,91.6446244 C91.9431753,94.6250022 93.5117952,96.3504841 96.9851678,98.2627064 C100.409988,100.103967 105.74703,101.553073 112.413665,102.434488 C114.113003,102.651107 115.901977,102.819174 117.761912,102.912544 C125.814161,87.0246654 133.560155,71.7492954 139.972822,60.6195638 C149.209006,44.6681934 164.379801,35.4506842 179.531922,35.3573139 C189.604703,35.2490045 199.976268,40.0631736 205.989311,49.4786278 C209.317026,54.5878469 211.139613,60.4141493 211.120939,66.1844296 C210.91179,80.4999536 201.399231,91.9359395 188.68594,100.772498 C175.767235,109.665079 158.560968,116.395205 138.975628,120.044114 C135.703935,120.645418 132.499469,121.074921 129.380903,121.340093 C125.306226,129.347524 121.190467,137.369894 117.156873,144.959027 C114.732981,149.522964 112.350173,153.922569 110.019652,158.086881 C111.188647,158.662042 112.324029,159.233468 113.444472,159.763811 C136.073682,170.990647 155.655287,178.934587 170.781264,178.788929 C182.79988,178.613393 192.2975,174.848705 202.807254,162.456608 C206.097621,158.475301 211.99115,157.911345 215.976191,161.201712 C219.946293,164.499549 220.521454,170.385608 217.223617,174.37065 C204.230216,190.359368 187.673806,197.683329 170.781264,197.492854 C149.589956,197.369605 128.379975,187.842107 105.194279,176.551778 C103.588311,175.756264 101.997282,174.96075 100.402518,174.180174 C98.8189592,176.62274 97.2652785,178.886034 95.7452111,180.940179 C87.2783985,192.503149 76.6976839,199.733739 64.7873771,202.818692 C61.8928999,203.599267 58.9162569,203.991422 55.9545532,203.991422 L55.5960115,203.991422 C45.9377947,203.991422 35.0396213,199.169783 30.4084578,188.223057 L30.4084578,188.223057 Z" id="Fill-16" fill="#FFFFFF"></path>
            <path d="M94.141484,145.271257 L94.7166447,144.475742 C95.0751863,144.008891 95.3590318,143.63541 95.5943248,143.344095 C96.061176,142.148956 97.3646244,139.530855 99.467322,135.575692 C105.047127,125.050999 110.847286,113.615013 116.460704,102.548774 L119.597944,96.3377857 C126.290722,83.1053565 132.072207,71.6917794 137.629603,62.0485018 L138.357891,60.7861363 L147.164571,66.959776 L156.67713,71.7851496 L155.971251,73.0064322 C150.776132,82.018527 145.581012,92.3079265 139.004013,105.323737 L135.519436,112.203256 C131.497046,120.147195 127.302856,128.259201 123.243118,136.1023 C121.588597,139.303032 119.949016,142.47015 118.350518,145.584981 C115.717477,150.682995 115.717477,150.682995 114.727753,150.682995 C114.68667,150.682995 114.526073,150.675526 114.335598,150.619504 C114.006935,150.98925 113.495266,151.609228 112.72963,152.647505 L112.397232,153.099417 L100.97992,154.675507 L94.141484,145.271257 Z" id="Fill-18" fill="#FFFFFF"></path>
            <path d="M137.931002,58.8526256 L136.470692,61.3773566 C130.883417,71.0654519 125.105667,82.4939682 118.412889,95.7301323 L115.26071,101.94859 C109.658496,113.00736 103.862072,124.439611 98.2934715,134.941895 C96.2393264,138.807422 94.973226,141.347093 94.4167395,142.66548 C94.2001205,142.945591 93.9498883,143.277989 93.6473688,143.688818 L92.4783735,145.257438 L93.6361643,146.855936 L99.4288535,154.81108 L100.358821,156.110794 L101.953585,155.89044 L112.015161,154.489887 L113.131869,154.336759 L113.796665,153.440405 C114.267251,152.805488 114.633262,152.346106 114.902168,152.009973 C116.455849,151.924073 117.165463,150.654237 117.628579,149.81017 C117.998325,149.152844 118.551077,148.114567 119.537067,146.19861 C121.143035,143.083779 122.767677,139.92413 124.425932,136.723399 C128.493139,128.87283 132.6948,120.74962 136.705985,112.809415 C137.912328,110.45275 139.070119,108.152108 140.190562,105.929896 C146.756357,92.9290253 151.951476,82.6657695 157.139126,73.6723487 L158.550884,71.2297835 L156.029888,69.9599483 L147.843186,65.81431 L140.32128,60.5258201 L137.931002,58.8526256 Z M138.778804,62.7181532 L146.465041,68.1224222 L154.823545,72.3390218 C148.698457,82.9645542 142.412773,95.6517013 134.319442,111.603072 C128.676145,122.758947 122.69298,134.228546 117.165463,144.981062 C115.316732,148.562744 114.86482,149.347054 114.726632,149.347054 C114.614588,149.347054 114.689284,148.854059 114.427848,148.854059 C114.136532,148.854059 113.441858,149.43669 111.649149,151.849376 L101.587573,153.24993 L95.7911493,145.279847 C96.2019783,144.73083 96.5194371,144.316266 96.7621997,144.017481 C96.6501554,144.316266 96.6352162,144.432045 96.6912383,144.432045 C96.8331611,144.432045 97.5315704,143.315337 97.4083217,143.315337 C97.3522996,143.315337 97.1655591,143.498343 96.7621997,144.017481 C97.04978,143.214497 98.0581785,141.078186 100.657606,136.20426 C106.229941,125.690772 112.026365,114.224908 117.643518,103.154933 C125.852629,86.9682697 132.403485,73.7769234 138.778804,62.7181532 L138.778804,62.7181532 Z" id="Fill-20" fill="#DA284B"></path>
            <path d="M82.6744991,182.867341 C78.525126,179.789858 77.6549155,173.922473 80.7323983,169.795508 C86.0731756,162.624675 93.2066613,150.225108 100.650136,136.197164 C114.237372,110.62119 129.038421,79.5961297 139.973943,60.6195638 C142.547227,56.1377927 148.268954,54.6102557 152.746991,57.1947437 C157.225027,59.7754969 158.748829,65.4934899 156.168076,69.9677914 C145.882411,87.7716272 130.980522,118.942345 117.161728,144.966496 C109.497899,159.349247 102.278513,172.122295 95.7463316,180.93271 C93.9200098,183.401419 91.1002288,184.704867 88.2393649,184.704867 C86.3009989,184.704867 84.3439589,184.107297 82.6744991,182.867341" id="Fill-22" fill="#FFFFFF"></path>
            <polygon id="Fill-24" fill="#FFFFFF" points="103.952828 51.2791793 97.2824586 45.9869546 119.358916 18.2111781 126.029286 23.5034028"></polygon>
            <path d="M170.471648,198.769412 C147.397997,198.769412 123.670754,187.113072 104.608287,177.74617 L102.542937,176.734037 C92.055593,171.553857 81.2358506,166.20561 68.9931458,166.20561 C65.8185579,166.20561 62.6103568,166.579091 59.4544429,167.292439 C58.6738678,167.467975 57.867149,167.56508 57.064165,167.56508 C52.0557858,167.56508 47.7682247,164.14773 46.6552516,159.262599 C45.3443335,153.514728 48.9446897,147.781796 54.6925611,146.459673 C59.4469733,145.372844 64.2835513,144.827561 69.0529028,144.827561 C86.1994121,144.827561 100.511201,151.886351 112.003209,157.570731 L114.034946,158.567925 C134.890121,168.816241 151.730376,175.923583 166.146739,177.249441 C167.722829,177.395098 169.280244,177.462325 170.770433,177.462325 C183.151326,177.462325 192.712438,172.57346 201.780555,161.604325 C203.823495,159.139351 206.822547,157.723858 210.019544,157.723858 C212.499457,157.723858 214.915879,158.590334 216.820631,160.166423 C221.369629,163.923641 222.008282,170.672442 218.258533,175.21397 C205.156822,191.07197 189.519176,198.769412 170.471648,198.769412" id="Fill-26" fill="#FFFFFF"></path>
            <path d="M69.0521558,143.483777 C64.1819645,143.483777 59.2520163,144.043998 54.3930294,145.153237 C47.9318094,146.635956 43.8720717,153.097176 45.354791,159.562131 C46.6208913,165.05977 51.4275909,168.906624 57.063418,168.906624 C57.9672419,168.906624 58.8710657,168.802049 59.7562155,168.5929 C62.8187591,167.890756 65.9186508,167.539684 69.0036033,167.539684 C80.9251145,167.539684 91.6141386,172.820704 101.940886,177.929923 L104.009971,178.942056 C123.21436,188.376184 147.090995,200.110955 170.463432,200.110955 C189.68276,200.110955 206.089777,192.021358 219.288593,176.062518 C223.501458,170.953299 222.78064,163.367902 217.682625,159.136363 C215.523906,157.366063 212.808699,156.387543 210.026266,156.387543 C206.418441,156.387543 203.042173,157.978572 200.752735,160.742331 C191.957259,171.394007 182.713606,176.13348 170.769686,176.13348 C169.324315,176.13348 167.815452,176.055049 166.261771,175.92433 C152.069496,174.609678 135.35249,167.554623 114.616829,157.366063 L112.596297,156.372604 C100.977305,150.624732 86.5011847,143.483777 69.0521558,143.483777 M69.0521558,146.154166 C85.8812064,146.154166 99.7672272,153.026215 111.416097,158.766617 L113.444099,159.763811 C134.437462,170.079354 151.4047,177.220309 166.022744,178.576045 C167.65112,178.732907 169.223475,178.803868 170.769686,178.803868 C183.53153,178.803868 193.563227,173.646097 202.80688,162.456608 C204.66308,160.215723 207.329734,159.057932 210.026266,159.057932 C212.121494,159.057932 214.235397,159.763811 215.975818,161.201712 C219.953389,164.492079 220.521081,170.378139 217.226979,174.36318 C203.116869,191.446198 186.930206,197.433097 170.470901,197.433097 C147.699769,197.448036 124.390825,185.982172 105.193905,176.544309 L103.136025,175.528441 C92.4843492,170.269829 81.5525624,164.880499 69.0036033,164.880499 C65.8215458,164.880499 62.5498529,165.220367 59.1623809,165.986003 C58.4565019,166.154069 57.7543578,166.228766 57.063418,166.228766 C52.8020007,166.228766 48.9514123,163.30441 47.9616879,158.968296 C46.8076318,153.930039 49.9523412,148.910455 54.9905989,147.763868 C59.8869339,146.635956 64.5778543,146.154166 69.0521558,146.154166" id="Fill-28" fill="#DA284B"></path>
            <path d="M30.4312401,188.22866 C29.0717695,185.039132 28.4405868,181.655395 28.4405868,178.316476 C28.4779349,164.505151 38.834561,151.433319 54.9950807,147.758266 C60.0296036,146.600475 65.0379828,149.763859 66.1808344,154.790912 C67.3274209,159.825435 64.1752419,164.833814 59.1481886,165.99534 C50.6739063,167.918767 47.0922243,174.144694 47.1333072,178.316476 C47.1333072,179.298731 47.3163128,180.168941 47.6599153,180.986864 C48.7019271,183.507861 51.2938847,185.158646 55.947457,185.281895 C57.2770491,185.281895 58.6626634,185.106359 59.9885207,184.747817 C64.9819607,183.42196 70.0949145,186.383664 71.4357111,191.380839 C72.7578336,196.378013 69.792395,201.483498 64.8101594,202.809355 C61.900743,203.58993 58.9241,203.98582 55.947457,203.98582 L55.5553021,203.98582 C45.8896157,203.98582 35.0213207,199.156711 30.4312401,188.22866" id="Fill-31" fill="#FFFFFF"></path>
        </g>
    </g>
</svg>