<?xml version="1.0" encoding="UTF-8" standalone="no"?>
<svg width="1554px" height="118px" viewBox="0 0 1554 118" version="1.1" xmlns="http://www.w3.org/2000/svg" xmlns:xlink="http://www.w3.org/1999/xlink">
    <!-- Generator: Sketch 41.2 (35397) - http://www.bohemiancoding.com/sketch -->
    <title>logo__text</title>
    <desc>Created with Sketch.</desc>
    <defs></defs>
    <g id="Page-1" stroke="none" stroke-width="1" fill="none" fill-rule="evenodd">
        <g id="Laufladen_Logo_2014" transform="translate(-162.000000, 0.000000)">
            <g id="Group-2" transform="translate(163.000000, 0.000000)" fill="#A4B93A">
                <path d="M160.033719,10.3912582 C160.033719,3.88531221 156.687269,0 151.085294,0 C145.480019,0 142.13137,3.88531221 142.13137,10.3912582 L142.13137,69.4990308 C142.13137,86.7525443 130.693178,100.269208 116.096589,100.269208 C100.67521,100.269208 89.9056477,87.619124 89.9056477,69.4990308 L89.9056477,10.3912582 C89.9056477,3.88531221 86.5613979,0 80.9550233,0 C75.3508481,0 72,3.88531221 72,10.3912582 L72,70.8560857 C72,97.2900652 91.3704753,118 116.096589,118 C140.732526,118 160.033719,97.2900652 160.033719,70.8560857 L160.033719,10.3912582" id="Fill-1"></path>
                <path d="M281.790904,10.4814199 C281.790904,3.91902385 278.417637,0 272.762618,0 C267.109817,0 263.734332,3.91902385 263.734332,10.4814199 L263.734332,77.9057127 L263.813089,83.9179146 L259.55574,77.9057127 L209.716583,4.49916805 C208.143649,2.09872435 204.115918,0 202.028286,0 C196.373267,0 193,3.91902385 193,10.4814199 L193,107.519689 C193,114.082085 196.373267,118 202.028286,118 C207.682196,118 211.055463,114.082085 211.055463,107.519689 L211.055463,40.9495286 L211.053245,35.2534664 L215.228508,40.9495286 L265.067665,113.486412 C266.770383,115.902385 270.732668,118 272.762618,118 C278.417637,118 281.790904,114.082085 281.790904,107.519689 L281.790904,10.4814199" id="Fill-2"></path>
                <path d="M48.6164073,101.866519 L18.2069548,101.866519 L18.2136686,99.9608925 L18.2136686,10.5754981 C18.2136686,3.95560107 14.8108446,0 9.10627483,0 C3.40282401,0 0,3.95560107 0,10.5754981 L0,106.741923 C0,113.897812 3.48786663,118 9.57177131,118 L48.6164073,118 C54.0233279,118 56.4839692,113.820603 56.4839692,109.933259 C56.4839692,106.211526 54.4216855,101.866519 48.6164073,101.866519" id="Fill-3"></path>
                <path d="M480.234965,101.723437 L449.296175,101.723437 L449.353749,64.7517747 L476.266862,64.7517747 C481.714961,64.7517747 484.20194,60.5319251 484.20194,56.6134933 C484.20194,52.8587528 482.122496,48.4752119 476.266862,48.4752119 L449.375199,48.4752119 L449.379714,46.7547596 L449.379714,18.1979603 L449.38423,18.1979603 L449.38423,16.2765628 L480.234965,16.2765628 C485.696611,16.2765628 488.172302,12.0567132 488.172302,8.13828138 C488.172302,4.38579875 486.093986,0 480.234965,0 L440.662304,0 C432.256472,0 431,7.66301207 431,9.6002143 L431,105.233205 C431,113.922393 434.819088,118 440.505386,118 L480.234965,118 C485.696611,118 488.172302,113.783537 488.172302,109.861719 C488.172302,106.106978 486.093986,101.723437 480.234965,101.723437" id="Fill-4"></path>
                <path d="M393.008593,48.1828245 L389.54134,48.1828245 L389.54134,48.1850052 L358.994622,48.1850052 C353.334713,48.1850052 351.332865,52.4209418 351.332865,56.0452025 C351.332865,59.8319227 353.728323,63.9032192 358.994622,63.9032192 L385.014285,63.9032192 L385.199641,65.7556919 L385.199641,71.092863 C385.199641,91.3555773 370.940291,100.420591 356.801966,100.420591 C335.290823,100.420591 325.663199,79.6148913 325.663199,58.996729 C325.663199,30.3864392 341.302909,17.5772287 356.801966,17.5772287 C364.577118,17.5772287 369.847779,19.3533782 373.891817,21.5656601 L376.236029,22.8925931 C377.250037,23.3679775 378.356723,23.6252957 379.520106,23.6252957 C384.187814,23.6252957 387.965812,19.451508 387.965812,14.3062352 C387.965812,11.075584 386.34667,8.54383501 384.179092,6.68700103 C382.976456,5.64573477 380.286609,4.6077395 380.286609,4.6077395 C373.787145,1.81431106 365.694707,0 356.801966,0 C327.944171,0 307,24.8137567 307,58.996729 C307,93.1873337 327.944171,118 356.801966,118 C384.949956,118 403.860659,93.7793835 403.860659,61.5077617 C403.860659,51.9161184 400.824087,48.1828245 393.008593,48.1828245" id="Fill-5"></path>
            </g>
            <g id="Group" transform="translate(702.000000, 0.000000)" fill="#898C8D">
                <path d="M0,0 L25.7250837,0 C41.4616885,0 50.4298389,3.72386181 57.1982933,8.45450731 C67.6990019,15.7165536 79.0382801,30.5996224 79.0382801,57.1391006 C79.0382801,91.291349 62.7853147,118 18.4464651,118 L0,118 L0,0 Z M14.8897735,105.161445 L23.8620548,105.161445 C49.9217401,105.161445 63.4627798,87.4003776 63.4627798,57.1391006 C63.4627798,32.4625848 52.970333,12.8550598 23.8620548,12.8550598 L14.8897735,12.8550598 L14.8897735,105.161445 L14.8897735,105.161445 Z" id="Fill-6"></path>
                <polyline id="Fill-7" points="92 0 147.004794 0 147.004794 12.8550598 106.898035 12.8550598 106.898035 50.3804462 145.150026 50.3804462 145.150026 63.2231275 106.898035 63.2231275 106.898035 105.161445 149.200359 105.161445 149.200359 118 92 118 92 0"></polyline>
                <path d="M161,0 L191.295908,0 C203.818684,0 210.756505,3.04717113 216.17416,8.11616197 C222.26928,13.8700958 224.981206,21.9780055 224.981206,30.5996224 C224.981206,43.1080845 219.055452,55.1152178 201.614857,58.8308273 L201.614857,59.1691727 C208.730306,60.5308064 212.111435,63.8998182 214.480497,70.6605357 L231.063933,118 L214.988596,118 L201.445491,78.1082593 C198.064362,68.3003707 193.838467,64.5765088 182.662359,64.5765088 L175.898035,64.5765088 L175.898035,118 L161,118 L161,0 Z M175.898035,52.4084551 L187.398418,52.4084551 C203.316782,52.4084551 209.397444,41.9238758 209.397444,31.6167214 C209.397444,18.4233163 200.776288,12.1783691 187.73302,12.1783691 L175.898035,12.1783691 L175.898035,52.4084551 L175.898035,52.4084551 Z" id="Fill-8"></path>
                <polyline id="Fill-9" points="283 0 297.903208 0 297.903208 105.160547 336.661878 105.160547 336.661878 118 283 118 283 0"></polyline>
                <path d="M393.855531,0 L432.45102,118 L416.87443,118 L407.397518,87.2352427 L362.373924,87.2352427 L352.899077,118 L338,118 L377.603495,0 L393.855531,0 Z M403.501821,74.3978528 L385.394888,15.554658 L385.056132,15.554658 L366.441064,74.3978528 L403.501821,74.3978528 L403.501821,74.3978528 Z" id="Fill-10"></path>
                <polyline id="Fill-11" points="609 0 623.894946 0 623.894946 105.160547 662.657747 105.160547 662.657747 118 609 118 609 0"></polyline>
                <path d="M719.849334,0 L758.448954,118 L742.868233,118 L733.395452,87.2352427 L688.371858,87.2352427 L678.890815,118 L664,118 L703.601429,0 L719.849334,0 Z M729.501821,74.3978528 L711.392822,15.554658 L711.054066,15.554658 L692.438998,74.3978528 L729.501821,74.3978528 L729.501821,74.3978528 Z" id="Fill-12"></path>
                <path d="M513.39268,73.8194502 C513.39268,85.3686124 512.726013,91.7314776 508.699426,99.9225177 C503.842572,109.637377 493.621708,118 476.697363,118 C459.779152,118 449.550108,109.637377 444.697344,99.9225177 C440.670757,91.7314776 440,85.3686124 440,73.8194502 L440,0 L454.74643,0 L454.74643,75.9887481 C454.74643,94.2378133 462.791424,105.950388 476.697363,105.950388 C490.601256,105.950388 498.65034,94.2378133 498.65034,75.9887481 L498.65034,0 L513.39268,0 L513.39268,73.8194502" id="Fill-13"></path>
                <polyline id="Fill-14" points="538 0 590.806725 0 590.806725 12.847706 552.890815 12.847706 552.890815 50.3880962 588.949763 50.3880962 588.949763 63.2275493 552.890815 63.2275493 552.890815 118 538 118 538 0"></polyline>
                <polyline id="Fill-15" points="853 0 908.002444 0 908.002444 12.847706 867.894946 12.847706 867.894946 50.3880962 906.147547 50.3880962 906.147547 63.2275493 867.894946 63.2275493 867.894946 105.160547 910.206425 105.160547 910.206425 118 853 118 853 0"></polyline>
                <path d="M764,0 L789.725084,0 C805.461689,0 814.429839,3.72386181 821.198293,8.45450731 C831.699002,15.7165536 843.03828,30.5996224 843.03828,57.1391006 C843.03828,91.291349 826.785315,118 782.446465,118 L764,118 L764,0 Z M778.889773,105.161445 L787.859989,105.161445 C813.92174,105.161445 827.46278,87.4003776 827.46278,57.1391006 C827.46278,32.4625848 816.970333,12.8550598 787.859989,12.8550598 L778.889773,12.8550598 L778.889773,105.161445 L778.889773,105.161445 Z" id="Fill-16"></path>
                <polyline id="Fill-17" points="921 0 939.452661 0 983.960877 97.377439 984.295479 97.377439 984.295479 0 998.518115 0 998.518115 118 980.067519 118 935.555172 21.3013148 935.216439 21.3013148 935.216439 118 921 118 921 0"></polyline>
            </g>
        </g>
    </g>
</svg>