<?xml version="1.0" encoding="utf-8"?>
<!-- Generator: Adobe Illustrator 19.2.1, SVG Export Plug-In . SVG Version: 6.00 Build 0)  -->
<svg version="1.1" xmlns="http://www.w3.org/2000/svg" xmlns:xlink="http://www.w3.org/1999/xlink" x="0px" y="0px" width="24px"
	 height="24px" viewBox="0 0 24 24" enable-background="new 0 0 24 24" xml:space="preserve">
<g id="Filled_Icons_1_">
	<g id="Filled_Icons">
		<path d="M13.414,12.002L23.708,1.707c0.391-0.391,0.391-1.023,0-1.414c-0.391-0.391-1.023-0.391-1.414,0L12,10.588L1.706,0.294
			c-0.391-0.391-1.023-0.391-1.414,0C-0.1,0.686-0.1,1.318,0.291,1.709l10.294,10.293L0.294,22.294
			c-0.391,0.391-0.391,1.024,0,1.414C0.686,24.1,1.318,24.1,1.709,23.709L12,13.416l10.293,10.292c0.391,0.391,1.023,0.391,1.414,0
			c0.391-0.391,0.391-1.023,0-1.414L13.414,12.002z"/>
	</g>
	<g id="New_icons">
	</g>
</g>
<g id="Invisible_Shape">
	<rect fill="none" width="24" height="24"/>
</g>
</svg>
