<?xml version="1.0" encoding="UTF-8"?>
<svg width="475px" height="561px" viewBox="0 0 475 561" version="1.1" xmlns="http://www.w3.org/2000/svg" xmlns:xlink="http://www.w3.org/1999/xlink">
    <!-- Generator: Sketch 43.2 (39069) - http://www.bohemiancoding.com/sketch -->
    <title>Buttons-Bester_Haendler_Running</title>
    <desc>Created with Sketch.</desc>
    <defs></defs>
    <g id="Page-1" stroke="none" stroke-width="1" fill="none" fill-rule="evenodd">
        <g id="Buttons-Bester_Haendler_Running">
            <g id="Group-5" transform="translate(0.000000, 0.661000)">
                <path d="M28.4266,0.416 C28.4266,0.416 0.9286,0.416 0.9286,27.914 L0.9286,532.445 C0.9286,532.445 0.9286,559.943 28.4266,559.943 L446.8486,559.943 C446.8486,559.943 474.3466,559.943 474.3466,532.445 L474.3466,27.914 C474.3466,27.914 474.3466,0.416 446.8486,0.416 L28.4266,0.416 Z" id="Fill-1" fill="#FFFFFF"></path>
                <path d="M28.4266,0.416 C28.4266,0.416 0.9286,0.416 0.9286,27.914 L0.9286,532.445 C0.9286,532.445 0.9286,559.943 28.4266,559.943 L446.8486,559.943 C446.8486,559.943 474.3466,559.943 474.3466,532.445 L474.3466,27.914 C474.3466,27.914 474.3466,0.416 446.8486,0.416 L28.4266,0.416 Z" id="Stroke-3" stroke="#D9222A" stroke-width="0.754"></path>
            </g>
            <polygon id="Fill-6" fill="#D9222A" points="0.552 413.278 474.723 413.278 474.723 195.417 0.552 195.417"></polygon>
            <g id="Group-19" transform="translate(0.000000, 45.661000)">
                <path d="M0.5521,472.693 L1.1001,488.658 C1.1001,488.658 1.6531,513.772 25.9831,514.524 L449.9531,514.905 C449.9531,514.905 474.7231,511.787 474.1761,488.658 L474.7231,472.693 L0.5521,472.693 Z" id="Fill-7" fill="#CBCCCB"></path>
                <path d="M407.3115,0.5861 L312.0445,0.5861 L300.2035,30.2711 L343.5675,30.3641 L283.2665,68.5171 L282.6155,68.6101 L298.9935,26.5491 C300.3895,21.3371 301.7845,14.4521 299.0865,9.4261 C296.6665,4.4931 291.6185,1.2371 286.2215,0.5861 L213.3805,0.5861 L201.8885,30.3641 L260.1655,30.3641 L261.9565,31.3871 C263.0735,32.1321 263.9815,32.8301 263.4225,34.3191 C262.7715,35.2491 261.5845,36.6921 260.3745,36.8781 L226.3155,37.3431 C212.4505,37.8081 199.6085,42.1821 190.6755,53.5351 C186.0225,45.1601 176.9955,41.1581 168.5275,38.8321 C159.4075,37.6221 148.9855,38.2741 139.3075,38.2741 L136.5155,37.7151 C135.5855,37.1571 134.2125,35.5291 134.3055,34.3191 C134.4915,32.4581 136.6555,30.8291 138.1445,30.3641 L182.4625,30.3641 L197.3525,30.3641 L208.6355,0.5861 L150.9395,0.5861 C131.0255,0.9581 110.4595,6.9141 100.5955,25.9901 C95.3845,34.4581 96.2225,46.8351 101.2475,55.1171 C112.7865,69.6331 132.7005,66.7491 150.6605,67.0291 L152.3355,68.0521 C152.9865,68.8891 153.5455,69.8201 153.1725,70.9371 C152.7075,71.8671 151.8085,73.8211 150.7845,74.1011 L80.6815,74.1011 L67.9645,105.7401 L161.3315,105.7401 C168.0315,105.2751 174.5755,100.4361 178.3915,94.8521 C179.5085,99.6911 185.2545,104.8711 189.9075,105.4301 L238.4135,105.7401 L367.2965,105.7401 C371.2055,95.6901 375.3625,84.1501 379.0835,74.1011 C373.5945,74.1941 329.9195,74.1011 329.9195,74.1011 L395.8735,30.0541 L407.3115,0.5861 Z M254.0235,73.0761 L219.3135,73.3571 C218.1965,72.8911 217.0795,72.2401 216.8005,70.9371 C216.7085,69.6331 217.2665,68.3321 218.4755,67.7731 L242.9495,67.0291 L256.2565,67.0291 L254.0235,73.0761 Z" id="Fill-9" fill="#D9222A"></path>
                <path d="M278.5714,89.0026 C278.0564,88.5566 277.4004,88.2066 276.6214,87.9606 C275.8544,87.7196 274.9554,87.5976 273.9464,87.5976 C273.4164,87.5976 272.8874,87.6216 272.3734,87.6686 C271.8704,87.7146 271.3824,87.7636 270.9124,87.8146 L269.5594,87.9586 C268.7154,88.0486 267.8974,88.0486 267.3824,87.9436 C267.1394,87.8946 266.9474,87.8236 266.8094,87.7346 C266.6904,87.6586 266.6054,87.5726 266.5594,87.4786 C266.5084,87.3786 266.4834,87.2606 266.4834,87.1286 C266.4834,86.9336 266.5374,86.7496 266.6524,86.5656 C266.7694,86.3786 266.9664,86.2056 267.2394,86.0496 C267.5344,85.8816 267.9314,85.7426 268.4214,85.6356 C268.9194,85.5276 269.5444,85.4716 270.2774,85.4716 C271.3374,85.4716 272.3844,85.5826 273.3884,85.8016 C274.4004,86.0216 275.4304,86.3256 276.4474,86.7026 L276.7984,86.8326 L278.3664,82.9546 L278.0064,82.8116 C277.5084,82.6136 276.9284,82.4256 276.2814,82.2516 C275.6374,82.0796 274.9584,81.9266 274.2654,81.7966 C273.5734,81.6676 272.8554,81.5616 272.1334,81.4826 C270.0174,81.2516 268.1304,81.3586 266.5374,81.8046 C265.4834,82.1006 264.5684,82.5216 263.8184,83.0546 C263.0584,83.5966 262.4624,84.2496 262.0494,84.9966 C261.6334,85.7506 261.4224,86.5836 261.4224,87.4726 C261.4224,88.1716 261.5414,88.8336 261.7794,89.4406 C262.0234,90.0656 262.4174,90.6106 262.9514,91.0626 C263.4764,91.5096 264.1604,91.8636 264.9834,92.1176 C265.7954,92.3666 266.7824,92.4936 267.9184,92.4936 C268.4394,92.4936 268.9544,92.4696 269.4514,92.4226 C269.9444,92.3766 270.4204,92.3276 270.8784,92.2776 L272.1824,92.1326 C273.3654,92.0006 274.3234,92.0696 274.7164,92.3926 C274.9624,92.5946 275.0794,92.8166 275.0794,93.0876 C275.0794,93.2836 275.0204,93.4756 274.9004,93.6736 C274.7814,93.8706 274.5614,94.0556 274.2474,94.2236 C273.9064,94.4066 273.4354,94.5616 272.8474,94.6826 C272.2524,94.8056 271.4904,94.8676 270.5804,94.8676 C269.2294,94.8676 267.8894,94.7136 266.5994,94.4096 C265.3224,94.1076 264.1334,93.6306 263.0684,92.9916 L262.7304,92.7886 L260.5724,96.5656 L260.9234,96.7516 C261.5054,97.0616 262.1584,97.3566 262.8634,97.6266 C263.5644,97.8966 264.3284,98.1366 265.1344,98.3376 C265.9324,98.5376 266.7864,98.6976 267.6754,98.8156 C268.5654,98.9316 269.4954,98.9906 270.4434,98.9906 C271.9944,98.9906 273.3844,98.8336 274.5744,98.5226 C275.7764,98.2096 276.7984,97.7656 277.6134,97.2056 C278.4424,96.6346 279.0774,95.9466 279.5004,95.1586 C279.9244,94.3696 280.1394,93.5066 280.1394,92.5906 C280.1394,91.8796 280.0084,91.2116 279.7494,90.6046 C279.4884,89.9916 279.0924,89.4516 278.5714,89.0026" id="Fill-11" fill="#FFFFFF"></path>
                <path d="M300.7987,83.7776 C299.9357,83.0116 298.8927,82.4106 297.6967,81.9916 C296.5067,81.5746 295.1857,81.3626 293.7687,81.3626 C293.1517,81.3626 292.5277,81.4136 291.9137,81.5126 C291.3027,81.6106 290.7017,81.7476 290.1277,81.9166 C289.5497,82.0876 289.0057,82.2886 288.5067,82.5156 C288.2487,82.6316 288.0077,82.7536 287.7817,82.8786 L287.7817,81.6526 L282.9277,81.6526 L282.9277,103.6086 L287.7817,103.6086 L287.7817,97.7826 C288.0037,97.8906 288.2417,97.9916 288.4917,98.0886 C288.9707,98.2736 289.4877,98.4336 290.0297,98.5656 C290.5677,98.6966 291.1387,98.8016 291.7277,98.8766 C292.3157,98.9526 292.9187,98.9906 293.5207,98.9906 C294.9357,98.9906 296.2697,98.7826 297.4857,98.3706 C298.7117,97.9556 299.7837,97.3546 300.6767,96.5866 C301.5737,95.8136 302.2867,94.8696 302.7957,93.7816 C303.3047,92.6906 303.5627,91.4546 303.5627,90.1076 C303.5627,88.8176 303.3167,87.6196 302.8317,86.5486 C302.3457,85.4776 301.6627,84.5456 300.7987,83.7776 M298.5017,90.1076 C298.5017,90.7496 298.3787,91.3516 298.1347,91.8966 C297.8917,92.4396 297.5377,92.9196 297.0797,93.3216 C296.6187,93.7286 296.0407,94.0536 295.3607,94.2886 C294.3357,94.6436 293.0317,94.7476 291.6157,94.5476 C291.1547,94.4816 290.6867,94.3776 290.2277,94.2366 C289.7687,94.0956 289.3157,93.9126 288.8787,93.6936 C288.4997,93.5056 288.1317,93.2746 287.7817,93.0096 L287.7817,87.7156 C288.0647,87.4426 288.3947,87.1876 288.7637,86.9586 C289.1887,86.6966 289.6487,86.4716 290.1337,86.2886 C290.6177,86.1056 291.1327,85.9596 291.6627,85.8586 C293.0147,85.5996 294.3877,85.6746 295.4507,86.0626 C296.0967,86.2976 296.6537,86.6206 297.1067,87.0236 C297.5557,87.4216 297.9037,87.8906 298.1427,88.4176 C298.3807,88.9446 298.5017,89.5136 298.5017,90.1076" id="Fill-13" fill="#FFFFFF"></path>
                <path d="M323.8113,83.9266 C322.9003,83.1346 321.7863,82.5026 320.5003,82.0466 C319.2193,81.5926 317.7633,81.3626 316.1713,81.3626 C314.5803,81.3626 313.1233,81.5926 311.8423,82.0466 C310.5563,82.5026 309.4423,83.1346 308.5313,83.9266 C307.6153,84.7226 306.9013,85.6666 306.4063,86.7306 C305.9113,87.7976 305.6613,88.9566 305.6613,90.1776 C305.6613,91.3976 305.9113,92.5556 306.4063,93.6216 C306.9013,94.6876 307.6153,95.6306 308.5313,96.4266 C309.4423,97.2186 310.5563,97.8506 311.8423,98.3066 C313.1233,98.7606 314.5803,98.9906 316.1713,98.9906 C317.7633,98.9906 319.2193,98.7606 320.5003,98.3066 C321.7863,97.8506 322.9003,97.2186 323.8113,96.4266 C324.7253,95.6316 325.4403,94.6876 325.9353,93.6216 C326.4313,92.5556 326.6813,91.3966 326.6813,90.1776 C326.6813,88.9576 326.4313,87.7976 325.9353,86.7306 C325.4403,85.6656 324.7253,84.7216 323.8113,83.9266 M316.1713,94.6466 C315.3013,94.6466 314.5163,94.5226 313.8403,94.2776 C313.1683,94.0326 312.5923,93.6996 312.1313,93.2896 C311.6713,92.8816 311.3193,92.4056 311.0803,91.8736 C310.8423,91.3426 310.7223,90.7726 310.7223,90.1776 C310.7223,89.5816 310.8423,89.0076 311.0813,88.4716 C311.3193,87.9366 311.6723,87.4576 312.1303,87.0506 C312.5933,86.6386 313.1693,86.3066 313.8403,86.0626 C314.5163,85.8166 315.3013,85.6926 316.1713,85.6926 C317.0413,85.6926 317.8253,85.8166 318.5033,86.0626 C319.1733,86.3066 319.7483,86.6386 320.2113,87.0496 C320.6703,87.4576 321.0223,87.9366 321.2603,88.4716 C321.5003,89.0086 321.6213,89.5826 321.6213,90.1776 C321.6213,90.7706 321.5003,91.3426 321.2613,91.8746 C321.0223,92.4056 320.6703,92.8816 320.2123,93.2886 C319.7493,93.6996 319.1743,94.0326 318.5033,94.2776 C317.8253,94.5226 317.0413,94.6466 316.1713,94.6466" id="Fill-15" fill="#FFFFFF"></path>
                <path d="M340.2568,81.5906 C339.2458,81.8536 338.2128,81.8016 337.1908,82.2986 C336.3958,82.6846 335.6258,83.1336 334.8898,83.6346 L334.8898,81.6526 L330.0358,81.6526 L330.0358,98.7006 L334.8898,98.7006 L334.8898,88.7616 C335.5828,87.8726 336.4838,87.1706 337.5688,86.6716 C338.7148,86.1446 340.0688,86.2376 341.5918,86.0856 L342.0658,86.0386 L340.6088,81.4996 L340.2568,81.5906 Z" id="Fill-17" fill="#FFFFFF"></path>
            </g>
            <polygon id="Fill-20" fill="#FFFFFF" points="352.3873 127.3136 352.3873 122.2506 347.5323 122.2506 347.5323 127.3136 343.6013 127.3136 343.6013 131.1466 347.5323 131.1466 347.5323 144.3616 352.3873 144.3616 352.3873 131.1466 356.3183 131.1466 356.3183 127.3136"></polygon>
            <path d="M63.3488876,528.858976 C58.8998296,528.858976 54.8239184,532.418223 54.8239184,539.077458 C54.8239184,545.908915 58.010018,549.324643 62.9183336,549.324643 C65.7025828,549.324643 67.769242,548.635757 69.5775688,547.573724 L69.5775688,538.015425 L63.0618516,538.015425 L63.3775912,540.225602 L66.8794304,540.225602 L66.8794304,546.167247 C65.75999,546.82743 64.4396244,547.085762 63.1192588,547.085762 C59.6461232,547.085762 57.722982,544.760771 57.722982,539.077458 C57.722982,533.250627 60.5646384,531.097857 63.4062948,531.097857 C65.185918,531.097857 66.3627656,531.585818 67.7405384,532.705259 L69.34794,531.04045 C67.6544276,529.633974 66.0183224,528.858976 63.3488876,528.858976 Z M84.9979948,529.20342 L74.291552,529.20342 L74.291552,548.9802 L85.2276236,548.9802 L85.2276236,546.798726 L77.018394,546.798726 L77.018394,540.024677 L83.6776292,540.024677 L83.6776292,537.843203 L77.018394,537.843203 L77.018394,531.384893 L84.6822552,531.384893 L84.9979948,529.20342 Z M109.833202,529.20342 L107.335988,529.20342 L104.035074,546.597801 L100.131385,529.20342 L97.2323212,529.20342 L93.4147424,546.597801 L90.2286428,529.20342 L87.559208,529.20342 L91.577712,548.9802 L94.9934404,548.9802 L98.6675012,532.418223 L102.312858,548.9802 L105.814698,548.9802 L109.833202,529.20342 Z M115.264775,526.591392 C116.18329,526.591392 116.90088,525.873802 116.90088,524.955287 C116.90088,524.036772 116.18329,523.319182 115.264775,523.319182 C114.317556,523.319182 113.599966,524.036772 113.599966,524.955287 C113.599966,525.873802 114.317556,526.591392 115.264775,526.591392 Z M121.263827,526.591392 C122.211046,526.591392 122.928636,525.873802 122.928636,524.955287 C122.928636,524.036772 122.211046,523.319182 121.263827,523.319182 C120.345312,523.319182 119.627722,524.036772 119.627722,524.955287 C119.627722,525.873802 120.345312,526.591392 121.263827,526.591392 Z M123.445301,548.9802 L121.952714,544.014477 L114.461074,544.014477 L112.968487,548.9802 L110.212941,548.9802 L116.556437,529.20342 L120.000869,529.20342 L126.315661,548.9802 L123.445301,548.9802 Z M115.121257,541.8043 L121.292531,541.8043 L118.221246,531.471004 L115.121257,541.8043 Z M140.473128,548.9802 L143.19997,548.9802 L143.19997,529.20342 L140.473128,529.20342 L140.473128,537.470056 L132.149084,537.470056 L132.149084,529.20342 L129.422242,529.20342 L129.422242,548.9802 L132.149084,548.9802 L132.149084,539.708937 L140.473128,539.708937 L140.473128,548.9802 Z M151.731532,529.20342 L151.731532,546.597801 L159.854651,546.597801 L159.538912,548.9802 L149.00469,548.9802 L149.00469,529.20342 L151.731532,529.20342 Z M172.462124,529.20342 L172.175088,531.528411 L166.692701,531.528411 L166.692701,548.9802 L163.965859,548.9802 L163.965859,531.528411 L158.339953,531.528411 L158.339953,529.20342 L172.462124,529.20342 Z M196.270594,529.20342 L193.515049,529.20342 L188.549326,546.023729 L183.583603,529.20342 L180.655836,529.20342 L187.028035,548.9802 L189.955802,548.9802 L196.270594,529.20342 Z M206.007708,528.858976 C210.97343,528.858976 214.360455,532.446926 214.360455,539.106162 C214.360455,545.650582 210.97343,549.324643 206.007708,549.324643 C201.070688,549.324643 197.65496,545.765397 197.65496,539.134865 C197.65496,532.619148 201.070688,528.858976 206.007708,528.858976 Z M206.007708,531.097857 C202.706794,531.097857 200.554024,533.422849 200.554024,539.134865 C200.554024,544.846882 202.792904,547.085762 206.007708,547.085762 C209.337325,547.085762 211.461392,544.846882 211.461392,539.106162 C211.461392,533.422849 209.394732,531.097857 206.007708,531.097857 Z M232.737352,529.20342 L230.182732,529.20342 L230.182732,539.995973 C230.182732,542.407076 230.498471,545.564472 230.555878,546.023729 L222.43276,529.20342 L218.873513,529.20342 L218.873513,548.9802 L221.428134,548.9802 L221.428134,539.909862 C221.428134,536.235802 221.198505,533.824699 221.054987,532.188594 L229.091995,548.9802 L232.737352,548.9802 L232.737352,529.20342 Z M257.263412,548.9802 L259.990254,548.9802 L259.990254,529.20342 L257.263412,529.20342 L257.263412,537.470056 L248.939368,537.470056 L248.939368,529.20342 L246.212526,529.20342 L246.212526,548.9802 L248.939368,548.9802 L248.939368,539.708937 L257.263412,539.708937 L257.263412,548.9802 Z M276.501417,529.20342 L265.794974,529.20342 L265.794974,548.9802 L276.731046,548.9802 L276.731046,546.798726 L268.521816,546.798726 L268.521816,540.024677 L275.181051,540.024677 L275.181051,537.843203 L268.521816,537.843203 L268.521816,531.384893 L276.185677,531.384893 L276.501417,529.20342 Z M291.749621,548.9802 L287.013527,540.598749 L283.942242,540.598749 L283.942242,548.9802 L281.2154,548.9802 L281.2154,529.20342 L286.410752,529.20342 C291.347771,529.20342 293.931095,531.097857 293.931095,534.800622 C293.931095,537.584871 292.495915,539.24968 289.654258,540.110788 L294.993128,548.9802 L291.749621,548.9802 Z M283.942242,538.503386 L286.697788,538.503386 C289.453333,538.503386 291.032031,537.470056 291.032031,534.800622 C291.032031,532.332112 289.625555,531.327486 286.382048,531.327486 L283.942242,531.327486 L283.942242,538.503386 Z M303.52469,528.858976 C299.879333,528.858976 297.296009,530.983043 297.296009,534.025624 C297.296009,537.09691 299.305261,538.560793 303.151543,539.737641 C306.509864,540.77097 307.42838,541.632078 307.42838,543.55522 C307.42838,545.937618 305.505238,547.085762 303.180247,547.085762 C301.027477,547.085762 299.477482,546.310765 298.013599,545.07651 L296.492308,546.770023 C298.128413,548.377424 300.367294,549.324643 303.20895,549.324643 C307.658008,549.324643 310.270036,546.913541 310.270036,543.469109 C310.270036,539.680234 307.571898,538.445979 304.414502,537.470056 C300.855255,536.37932 300.080258,535.575619 300.080258,533.91081 C300.080258,532.016372 301.658956,531.097857 303.639504,531.097857 C305.27561,531.097857 306.653382,531.614522 308.14597,532.820073 L309.638557,531.155264 C307.973748,529.662677 306.251532,528.858976 303.52469,528.858976 Z M325.747869,529.20342 L311.625698,529.20342 L311.625698,531.528411 L317.251604,531.528411 L317.251604,548.9802 L319.978446,548.9802 L319.978446,531.528411 L325.460833,531.528411 L325.747869,529.20342 Z M339.675708,529.20342 L328.969265,529.20342 L328.969265,548.9802 L339.905337,548.9802 L339.905337,546.798726 L331.696107,546.798726 L331.696107,540.024677 L338.355342,540.024677 L338.355342,537.843203 L331.696107,537.843203 L331.696107,531.384893 L339.359968,531.384893 L339.675708,529.20342 Z M347.116533,529.20342 L344.389691,529.20342 L344.389691,548.9802 L354.923912,548.9802 L355.239652,546.597801 L347.116533,546.597801 L347.116533,529.20342 Z M361.474926,529.20342 L358.748084,529.20342 L358.748084,548.9802 L369.282305,548.9802 L369.598045,546.597801 L361.474926,546.597801 L361.474926,529.20342 Z M383.81292,529.20342 L373.106477,529.20342 L373.106477,548.9802 L384.042548,548.9802 L384.042548,546.798726 L375.833319,546.798726 L375.833319,540.024677 L382.492554,540.024677 L382.492554,537.843203 L375.833319,537.843203 L375.833319,531.384893 L383.49718,531.384893 L383.81292,529.20342 Z M399.061124,548.9802 L394.32503,540.598749 L391.253745,540.598749 L391.253745,548.9802 L388.526903,548.9802 L388.526903,529.20342 L393.722254,529.20342 C398.659274,529.20342 401.242598,531.097857 401.242598,534.800622 C401.242598,537.584871 399.807418,539.24968 396.965761,540.110788 L402.304631,548.9802 L399.061124,548.9802 Z M391.253745,538.503386 L394.00929,538.503386 C396.764836,538.503386 398.343534,537.470056 398.343534,534.800622 C398.343534,532.332112 396.937058,531.327486 393.693551,531.327486 L391.253745,531.327486 L391.253745,538.503386 Z M419.82042,529.20342 L417.265799,529.20342 L417.265799,539.995973 C417.265799,542.407076 417.581539,545.564472 417.638946,546.023729 L409.515827,529.20342 L405.956581,529.20342 L405.956581,548.9802 L408.511201,548.9802 L408.511201,539.909862 C408.511201,536.235802 408.281572,533.824699 408.138054,532.188594 L416.175062,548.9802 L419.82042,548.9802 L419.82042,529.20342 Z" id="GEWÄHLT-VON-HERSTELL" fill="#1A1918"></path>
            <path d="M161.302709,230.721109 C166.87459,231.806541 172.591196,234.556301 172.591196,242.660856 C172.591196,254.094068 163.328847,257.278 150.737842,257.278 L134.601094,257.278 L134.601094,207.131065 L148.784065,207.131065 C162.243416,207.131065 170.492695,210.532083 170.492695,219.939156 C170.492695,226.307021 165.933883,229.635678 161.302709,230.721109 Z M149.941859,215.525068 L146.468478,215.525068 L146.468478,227.175366 L150.882566,227.175366 C155.803189,227.175366 158.408225,225.293952 158.408225,221.09695 C158.408225,216.899948 155.658465,215.525068 149.941859,215.525068 Z M150.810204,248.66691 C156.382086,248.66691 160.362001,247.509116 160.362001,242.009597 C160.362001,236.94425 156.816259,235.062835 151.678549,235.062835 L146.468478,235.062835 L146.468478,248.66691 L150.810204,248.66691 Z M212.535076,237.30606 C212.535076,238.536216 212.462713,240.272906 212.317989,241.4307 L188.58322,241.4307 C189.306841,248.3051 192.563136,250.186514 197.266672,250.186514 C200.378243,250.186514 203.128002,249.101083 206.456659,246.785495 L211.160196,253.15336 C207.325004,256.192568 202.404381,258.508156 196.181241,258.508156 C183.373149,258.508156 176.86056,250.258876 176.86056,238.246768 C176.86056,226.741194 183.156063,217.623569 194.806361,217.623569 C205.8054,217.623569 212.535076,224.859779 212.535076,237.30606 Z M201.31895,234.556301 L201.31895,234.049766 C201.246588,228.839695 199.654622,225.22159 195.095809,225.22159 C191.260618,225.22159 189.089755,227.609539 188.510858,234.556301 L201.31895,234.556301 Z M232.651739,217.623569 C222.955218,217.623569 216.949164,222.761278 216.949164,229.346229 C216.949164,235.279922 220.711993,239.187475 228.310013,241.358338 C235.256775,243.312115 236.414569,244.108098 236.414569,246.713133 C236.414569,249.028721 234.316068,250.331238 230.842687,250.331238 C227.079858,250.331238 223.534115,248.811634 220.639631,246.568409 L215.067749,252.79155 C218.830578,256.192568 224.474822,258.508156 231.132135,258.508156 C240.683932,258.508156 248.209591,253.804619 248.209591,245.844788 C248.209591,238.970389 243.940227,235.786456 236.342206,233.615593 C229.467807,231.589454 228.454737,230.721109 228.454737,228.69497 C228.454737,226.95828 229.974342,225.800486 233.085912,225.800486 C236.414569,225.800486 239.598501,226.885918 242.565347,228.767333 L246.762349,222.327106 C243.216606,219.432622 238.223621,217.623569 232.651739,217.623569 Z M274.332309,248.160375 C272.812705,249.101083 271.510187,249.462893 270.207669,249.462893 C267.81972,249.462893 266.589564,248.160375 266.589564,244.469908 L266.589564,226.813556 L274.187585,226.813556 L275.41774,218.853725 L266.589564,218.853725 L266.589564,209.229566 L255.156352,210.532083 L255.156352,218.853725 L249.729195,218.853725 L249.729195,226.813556 L255.156352,226.813556 L255.156352,244.614632 C255.156352,253.659895 259.280992,258.435794 267.747358,258.508156 C271.220739,258.508156 275.273016,257.495086 278.1675,255.468947 L274.332309,248.160375 Z M313.98674,237.30606 C313.98674,238.536216 313.914378,240.272906 313.769653,241.4307 L290.034885,241.4307 C290.758506,248.3051 294.0148,250.186514 298.718337,250.186514 C301.829907,250.186514 304.579667,249.101083 307.908323,246.785495 L312.61186,253.15336 C308.776669,256.192568 303.856046,258.508156 297.632905,258.508156 C284.824813,258.508156 278.312224,250.258876 278.312224,238.246768 C278.312224,226.741194 284.607727,217.623569 296.258025,217.623569 C307.257064,217.623569 313.98674,224.859779 313.98674,237.30606 Z M302.770614,234.556301 L302.770614,234.049766 C302.698252,228.839695 301.106286,225.22159 296.547474,225.22159 C292.712282,225.22159 290.541419,227.609539 289.962522,234.556301 L302.770614,234.556301 Z M341.411976,217.768293 C336.997888,217.768293 333.235058,220.952226 331.498368,226.234659 L330.557661,218.853725 L320.571691,218.853725 L320.571691,257.278 L332.004903,257.278 L332.004903,238.102043 C333.235058,232.313075 335.261197,228.839695 339.964734,228.839695 C341.267251,228.839695 342.207959,229.056781 343.438114,229.346229 L345.247167,218.274828 C344.017011,217.913018 342.859218,217.768293 341.411976,217.768293 Z" id="Bester-" fill="#FFFFFF"></path>
            <path d="M137.965931,327.278 L149.833316,327.278 L149.833316,277.131065 L137.965931,277.131065 L137.965931,296.524107 L122.914615,296.524107 L122.914615,277.131065 L111.04723,277.131065 L111.04723,327.278 L122.914615,327.278 L122.914615,305.786456 L137.965931,305.786456 L137.965931,327.278 Z M165.680616,280.893894 C169.009272,280.893894 171.541946,278.36122 171.541946,275.177288 C171.541946,271.993356 169.009272,269.460682 165.680616,269.460682 C162.424321,269.460682 159.819286,271.993356 159.819286,275.177288 C159.819286,278.36122 162.424321,280.893894 165.680616,280.893894 Z M182.468623,280.893894 C185.79728,280.893894 188.329953,278.36122 188.329953,275.177288 C188.329953,271.993356 185.79728,269.460682 182.468623,269.460682 C179.212328,269.460682 176.607293,271.993356 176.607293,275.177288 C176.607293,278.36122 179.212328,280.893894 182.468623,280.893894 Z M189.560109,316.134237 C189.560109,319.101083 190.356092,320.186514 192.165144,320.837773 L189.777195,328.291069 C185.290745,327.929259 182.323899,326.554379 180.514846,322.79155 C177.765086,326.988552 173.495723,328.508156 168.93691,328.508156 C161.266528,328.508156 156.418267,323.515171 156.418267,316.496047 C156.418267,308.102043 162.786132,303.543231 174.43643,303.543231 L178.343983,303.543231 L178.343983,301.878903 C178.343983,297.320091 176.534931,295.945211 171.831394,295.945211 C169.371083,295.945211 165.608254,296.668832 161.773062,297.971349 L159.168027,290.445691 C164.016287,288.636639 169.298721,287.623569 173.640447,287.623569 C184.78421,287.623569 189.560109,292.327106 189.560109,301.227644 L189.560109,316.134237 Z M172.265567,320.331238 C174.870602,320.331238 176.969103,318.956358 178.343983,316.713133 L178.343983,309.838734 L175.521861,309.838734 C170.31179,309.838734 167.779117,311.647786 167.779117,315.482978 C167.779117,318.522186 169.443445,320.331238 172.265567,320.331238 Z M221.182346,287.623569 C216.406448,287.623569 212.715981,289.649708 209.459686,293.412537 L208.663703,288.853725 L198.677733,288.853725 L198.677733,327.278 L210.110945,327.278 L210.110945,301.010558 C212.137084,297.826625 214.235585,296.017573 216.768258,296.017573 C219.011483,296.017573 220.386363,297.103004 220.386363,301.155282 L220.386363,327.278 L231.819575,327.278 L231.819575,299.201505 C231.819575,291.892933 227.83966,287.623569 221.182346,287.623569 Z M263.441813,272.355166 L274.875025,273.585322 L274.875025,327.278 L264.744331,327.278 L264.165434,322.79155 C261.994571,325.975482 258.448828,328.508156 253.238757,328.508156 C243.469873,328.508156 238.621613,320.4036 238.621613,307.957319 C238.621613,296.089935 244.627667,287.623569 254.541275,287.623569 C258.014655,287.623569 261.126226,288.998449 263.441813,291.241674 L263.441813,272.355166 Z M256.856862,320.114152 C259.534259,320.114152 261.63276,318.66691 263.441813,315.844788 L263.441813,299.201505 C261.705122,297.175366 259.968432,295.945211 257.508121,295.945211 C253.383481,295.945211 250.488997,299.418591 250.488997,308.029681 C250.488997,317.581479 253.094033,320.114152 256.856862,320.114152 Z M294.050981,328.508156 C296.800741,328.508156 299.261052,327.929259 300.997743,327.205638 L298.754518,319.101083 C298.247983,319.318169 297.669086,319.462893 296.873103,319.462893 C295.498223,319.462893 294.919326,318.66691 294.919326,317.074944 L294.919326,272.355166 L283.486115,273.585322 L283.486115,317.509116 C283.486115,324.52824 287.393668,328.508156 294.050981,328.508156 Z M337.540603,307.30606 C337.540603,308.536216 337.468241,310.272906 337.323517,311.4307 L313.588748,311.4307 C314.312369,318.3051 317.568664,320.186514 322.2722,320.186514 C325.38377,320.186514 328.13353,319.101083 331.462187,316.785495 L336.165723,323.15336 C332.330532,326.192568 327.409909,328.508156 321.186769,328.508156 C308.378677,328.508156 301.866088,320.258876 301.866088,308.246768 C301.866088,296.741194 308.161591,287.623569 319.811889,287.623569 C330.810928,287.623569 337.540603,294.859779 337.540603,307.30606 Z M326.324478,304.556301 L326.324478,304.049766 C326.252116,298.839695 324.660149,295.22159 320.101337,295.22159 C316.266146,295.22159 314.095283,297.609539 313.516386,304.556301 L326.324478,304.556301 Z M364.965839,287.768293 C360.551751,287.768293 356.788922,290.952226 355.052231,296.234659 L354.111524,288.853725 L344.125554,288.853725 L344.125554,327.278 L355.558766,327.278 L355.558766,308.102043 C356.788922,302.313075 358.815061,298.839695 363.518597,298.839695 C364.821115,298.839695 365.761822,299.056781 366.991978,299.346229 L368.80103,288.274828 C367.570875,287.913018 366.413081,287.768293 364.965839,287.768293 Z" id="Händler" fill="#FFFFFF"></path>
            <path d="M186.478185,347.348151 C179.169613,347.348151 173.597731,350.676808 169.690178,355.814517 L176.492215,361.169312 C179.314337,357.695931 181.774648,356.103965 185.320391,356.103965 C189.155583,356.103965 191.615894,358.491914 191.615894,362.47183 C191.615894,368.550246 187.780703,372.964334 171.354506,389.173445 L171.354506,397.278 L203.19383,397.278 L204.351624,388.522186 L184.307322,388.522186 C199.575725,374.628663 203.338554,368.912057 203.338554,361.314036 C203.338554,353.716016 197.404862,347.348151 186.478185,347.348151 Z M227.869306,347.348151 C239.881415,347.348151 246.321641,356.465776 246.321641,372.891972 C246.321641,389.245807 239.881415,398.508156 227.869306,398.508156 C215.857197,398.508156 209.41697,389.245807 209.41697,372.891972 C209.41697,356.465776 215.857197,347.348151 227.869306,347.348151 Z M227.869306,355.814517 C223.093407,355.814517 221.139631,359.939156 221.139631,372.891972 C221.139631,385.844788 223.093407,390.04179 227.869306,390.04179 C232.572842,390.04179 234.598981,386.134237 234.598981,372.891972 C234.598981,359.577346 232.572842,355.814517 227.869306,355.814517 Z M275.91774,348.36122 L265.714684,348.36122 L249.216125,358.34719 L254.20911,365.945211 L264.701615,359.504984 L264.701615,397.278 L275.91774,397.278 L275.91774,348.36122 Z M312.026428,371.010558 C318.683741,374.19449 321.72295,378.463854 321.72295,384.035736 C321.72295,391.923205 314.776188,398.508156 302.619355,398.508156 C290.824333,398.508156 283.949933,392.067929 283.949933,384.252822 C283.949933,378.463854 287.423314,374.556301 293.067558,372.095989 C287.929849,369.056781 285.90371,365.004503 285.90371,360.518053 C285.90371,352.630584 293.067558,347.348151 302.908804,347.348151 C312.605325,347.348151 319.841535,351.979325 319.841535,359.939156 C319.841535,364.136158 317.453586,368.116074 312.026428,371.010558 Z M302.981166,355.090896 C299.363061,355.090896 296.975111,356.97231 296.975111,360.662777 C296.975111,364.063796 298.928888,365.872849 302.908804,367.537177 L304.50077,368.116074 C307.829426,365.800486 308.770134,363.484899 308.770134,360.518053 C308.770134,357.334121 306.816357,355.090896 302.981166,355.090896 Z M302.981166,390.331238 C307.829426,390.331238 310.289738,387.509116 310.289738,383.963374 C310.289738,379.983458 308.263599,378.102043 302.764079,376.075905 L300.303768,375.207559 C297.047474,377.088974 295.455507,379.983458 295.455507,383.673925 C295.455507,387.726203 298.349991,390.331238 302.981166,390.331238 Z" id="-2018" fill="#FFFFFF"></path>
            <path d="M53.0955001,449.429 L45.3875001,449.429 L45.3875001,482 L53.0955001,482 L53.0955001,449.429 Z M71.8015001,449.429 L61.4145001,464.046 L72.6475001,482 L63.7175001,482 L53.3305001,464.61 L63.6705001,449.429 L71.8015001,449.429 Z M94.1735001,474.762 C94.1735001,476.689 94.6905001,477.394 95.8655001,477.817 L94.3145001,482.658 C91.4005001,482.423 89.4735001,481.53 88.2985001,479.086 C86.5125001,481.812 83.7395001,482.799 80.7785001,482.799 C75.7965001,482.799 72.6475001,479.556 72.6475001,474.997 C72.6475001,469.545 76.7835001,466.584 84.3505001,466.584 L86.8885001,466.584 L86.8885001,465.503 C86.8885001,462.542 85.7135001,461.649 82.6585001,461.649 C81.0605001,461.649 78.6165001,462.119 76.1255001,462.965 L74.4335001,458.077 C77.5825001,456.902 81.0135001,456.244 83.8335001,456.244 C91.0715001,456.244 94.1735001,459.299 94.1735001,465.08 L94.1735001,474.762 Z M82.9405001,477.488 C84.6325001,477.488 85.9955001,476.595 86.8885001,475.138 L86.8885001,470.673 L85.0555001,470.673 C81.6715001,470.673 80.0265001,471.848 80.0265001,474.339 C80.0265001,476.313 81.1075001,477.488 82.9405001,477.488 Z M112.8325,476.078 C111.8455,476.689 110.9995,476.924 110.1535,476.924 C108.6025,476.924 107.8035,476.078 107.8035,473.681 L107.8035,462.213 L112.7385,462.213 L113.5375,457.043 L107.8035,457.043 L107.8035,450.792 L100.3775,451.638 L100.3775,457.043 L96.8525001,457.043 L96.8525001,462.213 L100.3775,462.213 L100.3775,473.775 C100.3775,479.65 103.0565,482.752 108.5555,482.799 C110.8115,482.799 113.4435,482.141 115.3235,480.825 L112.8325,476.078 Z M138.6825,469.028 C138.6825,469.827 138.6355,470.955 138.5415,471.707 L123.1255,471.707 C123.5955,476.172 125.7105,477.394 128.7655,477.394 C130.7865,477.394 132.5725,476.689 134.7345,475.185 L137.7895,479.321 C135.2985,481.295 132.1025,482.799 128.0605,482.799 C119.7415,482.799 115.5115,477.441 115.5115,469.639 C115.5115,462.166 119.6005,456.244 127.1675,456.244 C134.3115,456.244 138.6825,460.944 138.6825,469.028 Z M131.3975,467.242 L131.3975,466.913 C131.3505,463.529 130.3165,461.179 127.3555,461.179 C124.8645,461.179 123.4545,462.73 123.0785,467.242 L131.3975,467.242 Z M163.7805,453.001 L165.5195,458.5 C163.7805,459.205 161.4775,459.487 158.3285,459.487 C161.4775,460.85 163.0285,462.683 163.0285,465.926 C163.0285,470.767 159.0335,474.292 152.5475,474.292 C151.5135,474.292 150.5735,474.198 149.6805,474.01 C149.1635,474.292 148.8815,474.856 148.8815,475.42 C148.8815,476.172 149.2105,476.924 151.6075,476.924 L155.3675,476.924 C161.1955,476.924 164.9085,479.979 164.9085,484.162 C164.9085,489.285 160.3965,492.434 151.8425,492.434 C142.3955,492.434 139.9045,489.332 139.9045,484.397 L146.5785,484.397 C146.5785,486.559 147.5185,487.499 152.0305,487.499 C156.4015,487.499 157.4355,486.277 157.4355,484.679 C157.4355,483.222 156.3545,482.235 153.8635,482.235 L150.2445,482.235 C144.7925,482.235 142.5835,479.979 142.5835,477.3 C142.5835,475.467 143.7585,473.634 145.5445,472.506 C142.3485,470.814 141.0795,468.605 141.0795,465.362 C141.0795,459.722 145.4975,456.244 152.0305,456.244 C157.5765,456.385 160.7725,454.787 163.7805,453.001 Z M152.2185,461.132 C149.9155,461.132 148.4585,462.683 148.4585,465.268 C148.4585,467.994 149.9625,469.498 152.2185,469.498 C154.6625,469.498 155.9785,468.041 155.9785,465.174 C155.9785,462.401 154.7095,461.132 152.2185,461.132 Z M178.3505,456.244 C185.9645,456.244 190.5705,461.132 190.5705,469.545 C190.5705,477.535 185.9645,482.799 178.3505,482.799 C170.7835,482.799 166.1305,477.911 166.1305,469.498 C166.1305,461.508 170.7365,456.244 178.3505,456.244 Z M178.3505,461.696 C175.3425,461.696 173.8385,464.093 173.8385,469.498 C173.8385,475.044 175.3425,477.347 178.3505,477.347 C181.3585,477.347 182.8625,474.95 182.8625,469.545 C182.8625,463.999 181.3585,461.696 178.3505,461.696 Z M208.1015,456.338 C205.2345,456.338 202.7905,458.406 201.6625,461.837 L201.0515,457.043 L194.5655,457.043 L194.5655,482 L201.9915,482 L201.9915,469.545 C202.7905,465.785 204.1065,463.529 207.1615,463.529 C208.0075,463.529 208.6185,463.67 209.4175,463.858 L210.5925,456.667 C209.7935,456.432 209.0415,456.338 208.1015,456.338 Z M216.6555,443.883 C214.0705,443.883 212.2845,445.716 212.2845,448.113 C212.2845,450.51 214.0705,452.343 216.6555,452.343 C219.2405,452.343 221.0735,450.51 221.0735,448.113 C221.0735,445.716 219.2405,443.883 216.6555,443.883 Z M220.4155,457.043 L212.9895,457.043 L212.9895,482 L220.4155,482 L220.4155,457.043 Z M247.5815,469.028 C247.5815,469.827 247.5345,470.955 247.4405,471.707 L232.0245,471.707 C232.4945,476.172 234.6095,477.394 237.6645,477.394 C239.6855,477.394 241.4715,476.689 243.6335,475.185 L246.6885,479.321 C244.1975,481.295 241.0015,482.799 236.9595,482.799 C228.6405,482.799 224.4105,477.441 224.4105,469.639 C224.4105,462.166 228.4995,456.244 236.0665,456.244 C243.2105,456.244 247.5815,460.944 247.5815,469.028 Z M240.2965,467.242 L240.2965,466.913 C240.2495,463.529 239.2155,461.179 236.2545,461.179 C233.7635,461.179 232.3535,462.73 231.9775,467.242 L240.2965,467.242 Z M279.6825,482 L273.0085,469.545 L270.0005,469.545 L270.0005,482 L262.2925,482 L262.2925,449.429 L272.9615,449.429 C281.7975,449.429 286.3565,452.578 286.3565,459.346 C286.3565,463.623 284.3355,466.161 280.1055,468.135 L288.3775,482 L279.6825,482 Z M270.0005,454.834 L270.0005,464.234 L273.2435,464.234 C276.6275,464.234 278.4135,462.777 278.4135,459.346 C278.4135,456.197 276.5805,454.834 272.7735,454.834 L270.0005,454.834 Z M311.7835,457.043 L304.3575,457.043 L304.3575,474.386 C303.2765,476.266 301.8665,477.3 300.3155,477.3 C298.7645,477.3 297.9185,476.548 297.9185,474.01 L297.9185,457.043 L290.4925,457.043 L290.4925,474.95 C290.4925,479.791 292.7955,482.799 297.4485,482.799 C300.7385,482.799 303.1825,481.483 305.0155,478.851 L305.3445,482 L311.7835,482 L311.7835,457.043 Z M331.8055,456.244 C328.7035,456.244 326.3065,457.56 324.1915,460.004 L323.6745,457.043 L317.1885,457.043 L317.1885,482 L324.6145,482 L324.6145,464.939 C325.9305,462.871 327.2935,461.696 328.9385,461.696 C330.3955,461.696 331.2885,462.401 331.2885,465.033 L331.2885,482 L338.7145,482 L338.7145,463.764 C338.7145,459.017 336.1295,456.244 331.8055,456.244 Z M358.5015,456.244 C355.3995,456.244 353.0025,457.56 350.8875,460.004 L350.3705,457.043 L343.8845,457.043 L343.8845,482 L351.3105,482 L351.3105,464.939 C352.6265,462.871 353.9895,461.696 355.6345,461.696 C357.0915,461.696 357.9845,462.401 357.9845,465.033 L357.9845,482 L365.4105,482 L365.4105,463.764 C365.4105,459.017 362.8255,456.244 358.5015,456.244 Z M374.2465,443.883 C371.6615,443.883 369.8755,445.716 369.8755,448.113 C369.8755,450.51 371.6615,452.343 374.2465,452.343 C376.8315,452.343 378.6645,450.51 378.6645,448.113 C378.6645,445.716 376.8315,443.883 374.2465,443.883 Z M378.0065,457.043 L370.5805,457.043 L370.5805,482 L378.0065,482 L378.0065,457.043 Z M398.0285,456.244 C394.9265,456.244 392.5295,457.56 390.4145,460.004 L389.8975,457.043 L383.4115,457.043 L383.4115,482 L390.8375,482 L390.8375,464.939 C392.1535,462.871 393.5165,461.696 395.1615,461.696 C396.6185,461.696 397.5115,462.401 397.5115,465.033 L397.5115,482 L404.9375,482 L404.9375,463.764 C404.9375,459.017 402.3525,456.244 398.0285,456.244 Z M431.3515,453.001 L433.0905,458.5 C431.3515,459.205 429.0485,459.487 425.8995,459.487 C429.0485,460.85 430.5995,462.683 430.5995,465.926 C430.5995,470.767 426.6045,474.292 420.1185,474.292 C419.0845,474.292 418.1445,474.198 417.2515,474.01 C416.7345,474.292 416.4525,474.856 416.4525,475.42 C416.4525,476.172 416.7815,476.924 419.1785,476.924 L422.9385,476.924 C428.7665,476.924 432.4795,479.979 432.4795,484.162 C432.4795,489.285 427.9675,492.434 419.4135,492.434 C409.9665,492.434 407.4755,489.332 407.4755,484.397 L414.1495,484.397 C414.1495,486.559 415.0895,487.499 419.6015,487.499 C423.9725,487.499 425.0065,486.277 425.0065,484.679 C425.0065,483.222 423.9255,482.235 421.4345,482.235 L417.8155,482.235 C412.3635,482.235 410.1545,479.979 410.1545,477.3 C410.1545,475.467 411.3295,473.634 413.1155,472.506 C409.9195,470.814 408.6505,468.605 408.6505,465.362 C408.6505,459.722 413.0685,456.244 419.6015,456.244 C425.1475,456.385 428.3435,454.787 431.3515,453.001 Z M419.7895,461.132 C417.4865,461.132 416.0295,462.683 416.0295,465.268 C416.0295,467.994 417.5335,469.498 419.7895,469.498 C422.2335,469.498 423.5495,468.041 423.5495,465.174 C423.5495,462.401 422.2805,461.132 419.7895,461.132 Z" id="Kategorie-Running" fill="#1A1918"></path>
            <path d="M28.0505,1.7002 C26.9685,1.7022 1.5525,2.0412 1.5525,28.1982 L1.5525,533.4832 C1.5535,534.5642 1.8935,559.9802 28.0495,559.9802 L447.2255,559.9802 C448.3075,559.9792 473.7235,559.6392 473.7235,533.4832 L473.7235,28.1982 C473.7215,27.1162 473.3825,1.7002 447.2255,1.7002 L28.0495,1.7002 L28.0505,1.7002 Z" id="Stroke-21" stroke="#D9222A" stroke-width="2"></path>
        </g>
    </g>
</svg>