<?xml version="1.0" encoding="UTF-8"?>
<svg width="1421px" height="256px" viewBox="0 0 1421 256" version="1.1" xmlns="http://www.w3.org/2000/svg" xmlns:xlink="http://www.w3.org/1999/xlink">
    <!-- Generator: Sketch 43.2 (39069) - http://www.bohemiancoding.com/sketch -->
    <title>Slice 1</title>
    <desc>Created with Sketch.</desc>
    <defs>
        <path d="M507,0 L1389.00618,0 C1406.67588,0 1421,14.3352808 1421,32.0017682 L1421,223.998232 C1421,241.67232 1406.66623,256 1389.00618,256 L507,256 L507,0 Z" id="path-1"></path>
    </defs>
    <g id="Page-1" stroke="none" stroke-width="1" fill="none" fill-rule="evenodd">
        <g id="Rectangle">
            <use fill="#D8232A" fill-rule="evenodd" xlink:href="#path-1"></use>
            <path stroke="#979797" stroke-width="1" d="M507.5,0.5 L1389.00618,0.5 C1406.39707,0.5 1420.5,14.6087518 1420.5,32.0017682 L1420.5,223.998232 C1420.5,241.392851 1406.39342,255.5 1389.00618,255.5 L507.5,255.5 L507.5,0.5 Z"></path>
        </g>
        <path d="M525,4 L525,252 L31.9985598,252 C16.5382434,252 4,239.458442 4,223.998232 L4,32.0017682 C4,16.5346914 16.5319235,4 31.9985598,4 L525,4 Z" id="Rectangle" stroke="#D8232A" stroke-width="8"></path>
        <g id="Group-19" transform="translate(73.000000, 71.000000)">
            <path d="M383.311121,0.7686875 L275.898308,0.7686875 L262.547671,32.4950888 L311.440249,32.5944843 L243.451333,73.3712196 L242.717336,73.4706151 L261.183405,28.5171314 C262.757385,22.9467085 264.330237,15.5882354 261.288262,10.2166035 C258.559731,4.94436713 252.868149,1.46445598 246.783073,0.7686875 L164.655404,0.7686875 L151.698262,32.5944843 L217.405133,32.5944843 L219.424472,33.6878348 C220.683881,34.4840675 221.707644,35.2300681 221.077375,36.8214648 C220.343378,37.8154198 219.005044,39.3576531 217.640779,39.5564441 L179.239517,40.0534216 C163.606836,40.5503991 149.127579,45.2251938 139.05569,57.3589257 C133.809468,48.4079872 123.631595,44.1307745 114.08399,41.6448183 C103.801259,40.3516081 92.0505343,41.0484454 81.1386634,41.0484454 L77.9907048,40.4510036 C76.9421369,39.8546306 75.3940899,38.114675 75.4989467,36.8214648 C75.7086603,34.8324861 78.1485537,33.0914618 79.8273898,32.5944843 L129.795595,32.5944843 L146.583956,32.5944843 L159.305452,0.7686875 L94.2536543,0.7686875 C71.8007718,1.16626949 48.6127643,7.53185635 37.4911799,27.9196896 C31.6158173,36.9700237 32.5606559,50.1981749 38.2263049,59.0497179 C51.236439,74.5639656 73.6893215,71.4816364 93.939084,71.7808917 L95.8276336,72.8742421 C96.5616311,73.7688016 97.1918994,74.7638254 96.7713447,75.9576401 C96.2470608,76.951595 95.2334452,79.0399692 94.078893,79.3392245 L15.0382974,79.3392245 L0.699977293,113.154 L105.970555,113.154 C113.524753,112.657023 120.903063,107.48525 125.205574,101.517246 C126.464983,106.689018 132.943554,112.22524 138.189776,112.822682 L192.879919,113.154 L338.194515,113.154 C342.601882,102.412874 347.288868,90.079282 351.484267,79.3392245 C345.295462,79.43862 296.052234,79.3392245 296.052234,79.3392245 L370.414863,32.263166 L383.311121,0.7686875 Z M210.480075,78.2437365 L171.344816,78.5440605 C170.085407,78.0460143 168.825998,77.3502458 168.511427,75.9576401 C168.407698,74.5639656 169.036839,73.1734974 170.399977,72.5760557 L197.994225,71.7808917 L212.997765,71.7808917 L210.480075,78.2437365 Z" id="Fill-9" fill="#D9222A"></path>
            <path d="M237.472242,95.5026046 C236.891583,95.0259337 236.151948,94.6518646 235.273631,94.3889475 C234.408845,94.1313742 233.395229,94.0009845 232.257589,94.0009845 C231.660018,94.0009845 231.063575,94.0266349 230.484044,94.076867 C229.916915,94.1260304 229.366699,94.1784001 228.836778,94.2329073 L227.311281,94.38681 C226.359677,94.4829992 225.437388,94.4829992 224.85673,94.3707785 C224.582749,94.3184088 224.366271,94.2425262 224.210677,94.1474058 C224.076505,94.0661793 223.980668,93.9742652 223.928803,93.873801 C223.871301,93.7669241 223.843114,93.6408094 223.843114,93.4997319 C223.843114,93.291322 223.903999,93.0946685 224.03366,92.8980151 C224.165577,92.6981553 224.387693,92.5132583 224.695498,92.3465304 C225.028109,92.1669772 225.475723,92.0184184 226.028194,91.9040601 C226.589685,91.7886331 227.294368,91.728782 228.12082,91.728782 C229.315962,91.728782 230.496446,91.8474154 231.628449,92.0814757 C232.769471,92.3166049 233.930788,92.6415106 235.077448,93.0444364 L235.473198,93.1833763 L237.241106,89.038691 L236.835208,88.8858571 C236.273717,88.6742408 235.619772,88.4733123 234.890284,88.2873465 C234.164179,88.1035183 233.398612,87.9399967 232.617259,87.8010567 C231.837035,87.6631856 231.027495,87.5498961 230.213446,87.4654634 C227.827672,87.2185778 225.700094,87.332936 223.903999,87.8096069 C222.715622,88.1259625 221.683966,88.5759141 220.838347,89.1455679 C219.981453,89.7248406 219.309467,90.4227466 218.843813,91.2211169 C218.374776,92.0269685 218.136875,92.9172529 218.136875,93.8673884 C218.136875,94.6144577 218.271047,95.3219827 218.53939,95.9707253 C218.814498,96.6387058 219.25873,97.2211848 219.860811,97.7042683 C220.452745,98.1820079 221.223949,98.5603521 222.151876,98.8318193 C223.067399,99.0979428 224.180234,99.2336764 225.461066,99.2336764 C226.048489,99.2336764 226.629148,99.208026 227.189511,99.1577938 C227.745365,99.1086305 228.282051,99.0562608 228.798443,99.0028224 L230.268693,98.8478509 C231.602516,98.7067734 232.682654,98.7805184 233.125759,99.1257308 C233.403122,99.3416221 233.535038,99.5788887 233.535038,99.8685251 C233.535038,100.078004 233.468516,100.283207 233.333217,100.494824 C233.199046,100.705371 232.950997,100.903093 232.596965,101.082646 C232.21249,101.278231 231.681441,101.44389 231.018475,101.573211 C230.347617,101.70467 229.488468,101.770933 228.46245,101.770933 C226.939208,101.770933 225.428368,101.606343 223.973903,101.281437 C222.534095,100.958669 221.193507,100.448867 219.992728,99.7659233 L219.611635,99.5489632 L217.178507,103.585703 L217.574257,103.784494 C218.230457,104.115812 218.96671,104.431099 219.761592,104.719667 C220.551964,105.008234 221.413368,105.264739 222.322127,105.479561 C223.221866,105.693315 224.184744,105.864318 225.187085,105.990433 C226.190553,106.11441 227.239121,106.177467 228.307984,106.177467 C230.056724,106.177467 231.623939,106.00967 232.965655,105.677283 C234.3209,105.342759 235.473198,104.868225 236.392104,104.269715 C237.326795,103.659448 238.042753,102.924135 238.519682,102.081945 C238.997739,101.238687 239.240149,100.316339 239.240149,99.337347 C239.240149,98.5774524 239.092448,97.8635148 238.800427,97.2147722 C238.506152,96.5596169 238.059665,95.9824818 237.472242,95.5026046" id="Fill-11" fill="#FFFFFF"></path>
            <path d="M263.260246,89.9200354 C262.28722,89.1013586 261.111246,88.4590285 259.762765,88.0112144 C258.421049,87.5655378 256.931632,87.3389588 255.333975,87.3389588 C254.638312,87.3389588 253.934757,87.393466 253.242477,87.4992742 C252.553579,87.6040135 251.875956,87.7504348 251.228776,87.9310567 C250.577085,88.1138162 249.963729,88.3286387 249.40111,88.5712492 C249.110217,88.6952264 248.838492,88.8256162 248.583679,88.9592123 L248.583679,87.6489018 L243.110831,87.6489018 L243.110831,111.114789 L248.583679,111.114789 L248.583679,104.888142 C248.833982,105.003569 249.102325,105.111515 249.384198,105.215185 C249.924267,105.412908 250.50718,105.583911 251.118281,105.724988 C251.724872,105.864997 252.36867,105.977218 253.032763,106.057375 C253.695729,106.138602 254.375607,106.179215 255.054357,106.179215 C256.649759,106.179215 258.153834,105.956911 259.524864,105.516578 C260.90717,105.073039 262.115842,104.430709 263.122692,103.609895 C264.134053,102.783737 264.937955,101.774819 265.511849,100.611998 C266.085742,99.4459716 266.376635,98.1249734 266.376635,96.6853418 C266.376635,95.3066301 266.099272,94.0262451 265.552438,92.8815937 C265.004477,91.7369424 264.2344,90.7408499 263.260246,89.9200354 M260.670396,96.6853418 C260.670396,97.3714914 260.531715,98.0148902 260.256607,98.5973692 C259.982626,99.1777106 259.583494,99.6907197 259.067102,100.120365 C258.547328,100.555354 257.895638,100.902703 257.128943,101.153864 C255.973263,101.533277 254.503013,101.644429 252.906484,101.430675 C252.38671,101.360136 251.859044,101.248985 251.341525,101.098288 C250.824006,100.947592 250.313252,100.752007 249.820538,100.517947 C249.393218,100.317018 248.978301,100.070133 248.583679,99.7869088 L248.583679,94.1288469 C248.902759,93.837073 249.274831,93.564537 249.690876,93.3197889 C250.17006,93.0397715 250.688707,92.7992985 251.235541,92.6037139 C251.781247,92.4081292 252.361905,92.2520889 252.959476,92.1441433 C254.483846,91.8673322 256.031893,91.9474898 257.230417,92.3621721 C257.958777,92.6133328 258.586791,92.9585451 259.097545,93.3892589 C259.603789,93.8146289 259.996156,94.3158814 260.265627,94.8791226 C260.53397,95.4423637 260.670396,96.0504932 260.670396,96.6853418" id="Fill-13" fill="#FFFFFF"></path>
            <path d="M289.507141,90.079282 C288.479995,89.2328171 287.223969,88.5573553 285.774013,88.0699967 C284.329696,87.5847757 282.688067,87.3389588 280.893099,87.3389588 C279.099259,87.3389588 277.456502,87.5847757 276.012185,88.0699967 C274.56223,88.5573553 273.306203,89.2328171 272.279058,90.079282 C271.246275,90.9300219 270.441245,91.9389397 269.883136,93.0761097 C269.325028,94.216486 269.043155,95.455189 269.043155,96.7601557 C269.043155,98.0640536 269.325028,99.3016878 269.883136,100.440995 C270.441245,101.580303 271.246275,102.588152 272.279058,103.438892 C273.306203,104.285357 274.56223,104.960819 276.012185,105.448177 C277.456502,105.933398 279.099259,106.179215 280.893099,106.179215 C282.688067,106.179215 284.329696,105.933398 285.774013,105.448177 C287.223969,104.960819 288.479995,104.285357 289.507141,103.438892 C290.537669,102.589221 291.343826,101.580303 291.901934,100.440995 C292.46117,99.3016878 292.743044,98.0629848 292.743044,96.7601557 C292.743044,95.4562577 292.46117,94.216486 291.901934,93.0761097 C291.343826,91.9378709 290.537669,90.9289532 289.507141,90.079282 M280.893099,101.536483 C279.912181,101.536483 279.027099,101.403956 278.264914,101.142108 C277.50724,100.880259 276.857804,100.524359 276.33803,100.086164 C275.819384,99.6501064 275.422506,99.1413725 275.153036,98.5727875 C274.884692,98.0052713 274.749393,97.3960731 274.749393,96.7601557 C274.749393,96.1231695 274.884692,95.5096962 275.154163,94.9368361 C275.422506,94.3650448 275.820511,93.8531046 276.336903,93.4181157 C276.858931,92.9777829 277.508367,92.6229517 278.264914,92.3621721 C279.027099,92.099255 279.912181,91.9667277 280.893099,91.9667277 C281.874017,91.9667277 282.757971,92.099255 283.522411,92.3621721 C284.277831,92.6229517 284.926139,92.9777829 285.448168,93.4170469 C285.965687,93.8531046 286.362564,94.3650448 286.630908,94.9368361 C286.901506,95.5107649 287.037932,96.1242382 287.037932,96.7601557 C287.037932,97.3939355 286.901506,98.0052713 286.632035,98.5738563 C286.362564,99.1413725 285.965687,99.6501064 285.449296,100.085095 C284.927267,100.524359 284.278959,100.880259 283.522411,101.142108 C282.757971,101.403956 281.874017,101.536483 280.893099,101.536483" id="Fill-15" fill="#FFFFFF"></path>
            <path d="M307.62707,87.4362168 C306.487175,87.717303 305.322476,87.661727 304.170178,88.1929051 C303.273822,88.6054498 302.405653,89.085327 301.575819,89.6207802 L301.575819,87.5024805 L296.102971,87.5024805 L296.102971,105.722851 L301.575819,105.722851 L301.575819,95.1003577 C302.357171,94.1502223 303.373041,93.3999466 304.596371,92.866631 C305.888477,92.3033898 307.415101,92.4027853 309.132272,92.2403325 L309.666704,92.1901003 L308.023947,87.3389588 L307.62707,87.4362168 Z" id="Fill-17" fill="#FFFFFF"></path>
            <polygon id="Fill-20" fill="#FFFFFF" points="320.666519 87.7686039 320.666519 82.3574275 315.192544 82.3574275 315.192544 87.7686039 310.760371 87.7686039 310.760371 91.8651946 315.192544 91.8651946 315.192544 105.988974 320.666519 105.988974 320.666519 91.8651946 325.098691 91.8651946 325.098691 87.7686039"></polygon>
        </g>
        <text id="Bester-Händler-2018" font-family="FiraSans-Bold, Fira Sans" font-size="84" font-weight="bold" fill="#FFFFFF">
            <tspan x="577.279992" y="109">Bes</tspan>
            <tspan x="716.215992" y="109" letter-spacing="-0.7959831">t</tspan>
            <tspan x="747.004008" y="109">er Händler 2018 </tspan>
        </text>
        <text id="Kategorie-Running" font-family="FiraSans-Bold, Fira Sans" font-size="48" font-weight="bold" letter-spacing="-0.432000011" fill="#FFFFFF">
            <tspan x="765.18" y="199">Kategorie Running</tspan>
        </text>
    </g>
</svg>