<?xml version="1.0" encoding="UTF-8"?>
<svg width="180px" height="24px" viewBox="0 0 180 24" version="1.1" xmlns="http://www.w3.org/2000/svg" xmlns:xlink="http://www.w3.org/1999/xlink">
    <!-- Generator: Sketch 43.2 (39069) - http://www.bohemiancoding.com/sketch -->
    <title>Slice 1</title>
    <desc>Created with Sketch.</desc>
    <defs></defs>
    <g id="Page-1" stroke="none" stroke-width="1" fill="none" fill-rule="evenodd">
        <g id="bank-notes-3">
            <g id="Outline_Icons" transform="translate(0.000000, 5.000000)" fill-rule="nonzero" fill="#000000">
                <g id="Group">
                    <path d="M17.5,10 C17.599,10 17.695,9.971 17.777,9.916 L23.777,5.916 C24.006,5.763 24.069,5.453 23.916,5.223 C23.762,4.992 23.45,4.932 23.223,5.084 L17.349,9 L13,9 L13,8 L17.5,8 C17.599,8 17.695,7.971 17.777,7.916 L23.777,3.916 C24.006,3.763 24.069,3.453 23.916,3.223 C23.762,2.993 23.45,2.931 23.223,3.084 L17.349,7 L13,7 L13,6 L17.5,6 C17.599,6 17.695,5.971 17.777,5.916 L23.777,1.916 C23.961,1.794 24.042,1.566 23.978,1.354 C23.915,1.144 23.721,1 23.5,1 L18.666,1 L18.8,0.9 C18.973,0.77 19.042,0.546 18.975,0.341 C18.906,0.138 18.715,0 18.5,0 L11.5,0 C11.392,0 11.286,0.035 11.2,0.1 L10,1 L6.5,1 C6.401,1 6.305,1.029 6.223,1.084 L0.223,5.084 C0.039,5.206 -0.042,5.434 0.022,5.645 C0.085,5.855 0.279,6 0.5,6 L5,6 L5,7 L0.5,7 C0.224,7 0,7.224 0,7.5 C0,7.776 0.224,8 0.5,8 L5,8 L5,9 L0.5,9 C0.224,9 0,9.224 0,9.5 C0,9.776 0.224,10 0.5,10 L5,10 L5,11 L0.5,11 C0.224,11 0,11.224 0,11.5 C0,11.776 0.224,12 0.5,12 L5,12 L5,13 L0.5,13 C0.224,13 0,13.224 0,13.5 C0,13.776 0.224,14 0.5,14 L5,14 L5,14.5 C5,14.776 5.224,15 5.5,15 L12.5,15 C12.776,15 13,14.776 13,14.5 L13,14 L17.5,14 C17.599,14 17.695,13.971 17.777,13.916 L23.777,9.916 C24.006,9.763 24.069,9.453 23.916,9.223 C23.762,8.992 23.45,8.932 23.223,9.084 L17.349,13 L13,13 L13,12 L17.5,12 C17.599,12 17.695,11.971 17.777,11.916 L23.777,7.916 C24.006,7.763 24.069,7.453 23.916,7.223 C23.762,6.993 23.45,6.932 23.223,7.084 L17.349,11 L13,11 L13,10 L17.5,10 Z M21.849,2 L17.349,5 L13.333,5 L17.333,2 L21.849,2 Z M2.151,5 L6.651,2 L8.667,2 L5.2,4.6 C5.074,4.694 5,4.843 5,5 L2.151,5 Z M12,14 L6,14 L6,5.25 L11.667,1 L17,1 L12.2,4.6 C12.074,4.694 12,4.843 12,5 L12,14 Z" id="Shape"></path>
                    <path d="M9,6.5 C9.552,6.5 10,6.949 10,7.5 C10,7.776 10.224,8 10.5,8 C10.776,8 11,7.776 11,7.5 C11,6.571 10.36,5.795 9.5,5.571 L9.5,5 C9.5,4.724 9.276,4.5 9,4.5 C8.724,4.5 8.5,4.724 8.5,5 L8.5,5.571 C7.64,5.795 7,6.571 7,7.5 C7,8.603 7.897,9.5 9,9.5 C9.552,9.5 10,9.949 10,10.5 C10,11.051 9.552,11.5 9,11.5 C8.448,11.5 8,11.051 8,10.5 C8,10.224 7.776,10 7.5,10 C7.224,10 7,10.224 7,10.5 C7,11.429 7.64,12.205 8.5,12.429 L8.5,13 C8.5,13.276 8.724,13.5 9,13.5 C9.276,13.5 9.5,13.276 9.5,13 L9.5,12.429 C10.36,12.205 11,11.429 11,10.5 C11,9.396 10.103,8.5 9,8.5 C8.448,8.5 8,8.051 8,7.5 C8,6.949 8.448,6.5 9,6.5 Z" id="Shape"></path>
                </g>
            </g>
            <g id="Invisible_Shape">
                <rect id="Rectangle-path" x="0" y="0" width="24" height="24"></rect>
            </g>
        </g>
        <text id="Banküberweisung" font-family="Inter-Bold, Inter" font-size="16" font-weight="bold" letter-spacing="-0.143999994" fill="#000000">
            <tspan x="32" y="18">Banküberweisung</tspan>
        </text>
    </g>
</svg>