<?xml version="1.0" encoding="UTF-8"?>
<svg width="180px" height="32px" viewBox="0 0 180 32" version="1.1" xmlns="http://www.w3.org/2000/svg" xmlns:xlink="http://www.w3.org/1999/xlink">
    <!-- Generator: Sketch 43.2 (39069) - http://www.bohemiancoding.com/sketch -->
    <title>Slice 1</title>
    <desc>Created with Sketch.</desc>
    <defs></defs>
    <g id="Page-1" stroke="none" stroke-width="1" fill="none" fill-rule="evenodd">
        <g id="bank-notes-3">
            <g id="Outline_Icons" transform="translate(0.000000, 6.666667)" fill-rule="nonzero" fill="#000000">
                <g id="Group">
                    <path d="M23.3333333,13.3333333 C23.4653333,13.3333333 23.5933333,13.2946667 23.7026667,13.2213333 L31.7026667,7.888 C32.008,7.684 32.092,7.27066667 31.888,6.964 C31.6826667,6.656 31.2666667,6.576 30.964,6.77866667 L23.132,12 L17.3333333,12 L17.3333333,10.6666667 L23.3333333,10.6666667 C23.4653333,10.6666667 23.5933333,10.628 23.7026667,10.5546667 L31.7026667,5.22133333 C32.008,5.01733333 32.092,4.604 31.888,4.29733333 C31.6826667,3.99066667 31.2666667,3.908 30.964,4.112 L23.132,9.33333333 L17.3333333,9.33333333 L17.3333333,8 L23.3333333,8 C23.4653333,8 23.5933333,7.96133333 23.7026667,7.888 L31.7026667,2.55466667 C31.948,2.392 32.056,2.088 31.9706667,1.80533333 C31.8866667,1.52533333 31.628,1.33333333 31.3333333,1.33333333 L24.888,1.33333333 L25.0666667,1.2 C25.2973333,1.02666667 25.3893333,0.728 25.3,0.454666667 C25.208,0.184 24.9533333,0 24.6666667,0 L15.3333333,0 C15.1893333,0 15.048,0.0466666667 14.9333333,0.133333333 L13.3333333,1.33333333 L8.66666667,1.33333333 C8.53466667,1.33333333 8.40666667,1.372 8.29733333,1.44533333 L0.297333333,6.77866667 C0.052,6.94133333 -0.056,7.24533333 0.0293333333,7.52666667 C0.113333333,7.80666667 0.372,8 0.666666667,8 L6.66666667,8 L6.66666667,9.33333333 L0.666666667,9.33333333 C0.298666667,9.33333333 0,9.632 0,10 C0,10.368 0.298666667,10.6666667 0.666666667,10.6666667 L6.66666667,10.6666667 L6.66666667,12 L0.666666667,12 C0.298666667,12 0,12.2986667 0,12.6666667 C0,13.0346667 0.298666667,13.3333333 0.666666667,13.3333333 L6.66666667,13.3333333 L6.66666667,14.6666667 L0.666666667,14.6666667 C0.298666667,14.6666667 0,14.9653333 0,15.3333333 C0,15.7013333 0.298666667,16 0.666666667,16 L6.66666667,16 L6.66666667,17.3333333 L0.666666667,17.3333333 C0.298666667,17.3333333 0,17.632 0,18 C0,18.368 0.298666667,18.6666667 0.666666667,18.6666667 L6.66666667,18.6666667 L6.66666667,19.3333333 C6.66666667,19.7013333 6.96533333,20 7.33333333,20 L16.6666667,20 C17.0346667,20 17.3333333,19.7013333 17.3333333,19.3333333 L17.3333333,18.6666667 L23.3333333,18.6666667 C23.4653333,18.6666667 23.5933333,18.628 23.7026667,18.5546667 L31.7026667,13.2213333 C32.008,13.0173333 32.092,12.604 31.888,12.2973333 C31.6826667,11.9893333 31.2666667,11.9093333 30.964,12.112 L23.132,17.3333333 L17.3333333,17.3333333 L17.3333333,16 L23.3333333,16 C23.4653333,16 23.5933333,15.9613333 23.7026667,15.888 L31.7026667,10.5546667 C32.008,10.3506667 32.092,9.93733333 31.888,9.63066667 C31.6826667,9.324 31.2666667,9.24266667 30.964,9.44533333 L23.132,14.6666667 L17.3333333,14.6666667 L17.3333333,13.3333333 L23.3333333,13.3333333 Z M29.132,2.66666667 L23.132,6.66666667 L17.7773333,6.66666667 L23.1106667,2.66666667 L29.132,2.66666667 Z M2.868,6.66666667 L8.868,2.66666667 L11.556,2.66666667 L6.93333333,6.13333333 C6.76533333,6.25866667 6.66666667,6.45733333 6.66666667,6.66666667 L2.868,6.66666667 Z M16,18.6666667 L8,18.6666667 L8,7 L15.556,1.33333333 L22.6666667,1.33333333 L16.2666667,6.13333333 C16.0986667,6.25866667 16,6.45733333 16,6.66666667 L16,18.6666667 Z" id="Shape"></path>
                    <path d="M12,8.66666667 C12.736,8.66666667 13.3333333,9.26533333 13.3333333,10 C13.3333333,10.368 13.632,10.6666667 14,10.6666667 C14.368,10.6666667 14.6666667,10.368 14.6666667,10 C14.6666667,8.76133333 13.8133333,7.72666667 12.6666667,7.428 L12.6666667,6.66666667 C12.6666667,6.29866667 12.368,6 12,6 C11.632,6 11.3333333,6.29866667 11.3333333,6.66666667 L11.3333333,7.428 C10.1866667,7.72666667 9.33333333,8.76133333 9.33333333,10 C9.33333333,11.4706667 10.5293333,12.6666667 12,12.6666667 C12.736,12.6666667 13.3333333,13.2653333 13.3333333,14 C13.3333333,14.7346667 12.736,15.3333333 12,15.3333333 C11.264,15.3333333 10.6666667,14.7346667 10.6666667,14 C10.6666667,13.632 10.368,13.3333333 10,13.3333333 C9.632,13.3333333 9.33333333,13.632 9.33333333,14 C9.33333333,15.2386667 10.1866667,16.2733333 11.3333333,16.572 L11.3333333,17.3333333 C11.3333333,17.7013333 11.632,18 12,18 C12.368,18 12.6666667,17.7013333 12.6666667,17.3333333 L12.6666667,16.572 C13.8133333,16.2733333 14.6666667,15.2386667 14.6666667,14 C14.6666667,12.528 13.4706667,11.3333333 12,11.3333333 C11.264,11.3333333 10.6666667,10.7346667 10.6666667,10 C10.6666667,9.26533333 11.264,8.66666667 12,8.66666667 Z" id="Shape"></path>
                </g>
            </g>
            <g id="Invisible_Shape">
                <rect id="Rectangle-path" x="0" y="0" width="32" height="32"></rect>
            </g>
        </g>
        <text id="Banküberweisung" font-family="Inter-Bold, Inter" font-size="16" font-weight="bold" letter-spacing="-0.143999994" fill="#000000">
            <tspan x="40" y="21">Banküberweisung</tspan>
        </text>
    </g>
</svg>