<?xml version="1.0" encoding="utf-8"?>
<!-- Generator: Adobe Illustrator 19.2.1, SVG Export Plug-In . SVG Version: 6.00 Build 0)  -->
<svg version="1.1" xmlns="http://www.w3.org/2000/svg" xmlns:xlink="http://www.w3.org/1999/xlink" x="0px" y="0px" width="24px"
	 height="24px" viewBox="0 0 24 24" enable-background="new 0 0 24 24" xml:space="preserve">
<g id="Filled_Icon">
	<path d="M0.5,3H4c0.232,0,0.434,0.16,0.487,0.386L5.809,9H23.5c0.344,0,0.582,0.335,0.475,0.659l-3,9
		C20.906,18.862,20.716,19,20.5,19H8.161l0.235,1H19c1.104,0,2,0.898,2,2c0,1.104-0.896,2-2,2c-1.498,0-2.521-1.625-1.722-3H9.723
		c0.791,1.362-0.211,3-1.723,3c-1.102,0-2-0.896-2-2c0-0.89,0.588-1.637,1.394-1.896L3.605,4H0.5C0.225,4,0,3.776,0,3.5
		S0.225,3,0.5,3z"/>
</g>
<g id="Invisible_Shape">
	<rect fill="none" width="24" height="24"/>
</g>
</svg>
